<svg width="2274" height="1080" viewBox="0 0 2274 1080" fill="none" xmlns="http://www.w3.org/2000/svg">
<rect width="1022" height="1022" fill="#F7F7F7"/>
<path d="M556.903 495V494.233L559.784 491.08C560.122 490.71 560.401 490.389 560.619 490.116C560.838 489.841 561 489.582 561.105 489.341C561.213 489.097 561.267 488.841 561.267 488.574C561.267 488.267 561.193 488.001 561.045 487.777C560.901 487.553 560.702 487.379 560.449 487.257C560.196 487.135 559.912 487.074 559.597 487.074C559.261 487.074 558.969 487.143 558.719 487.283C558.472 487.419 558.28 487.611 558.143 487.858C558.01 488.105 557.943 488.395 557.943 488.727H556.938C556.938 488.216 557.055 487.767 557.291 487.381C557.527 486.994 557.848 486.693 558.254 486.477C558.663 486.261 559.122 486.153 559.631 486.153C560.142 486.153 560.595 486.261 560.99 486.477C561.385 486.693 561.695 486.984 561.919 487.351C562.143 487.717 562.256 488.125 562.256 488.574C562.256 488.895 562.197 489.209 562.081 489.516C561.967 489.82 561.768 490.159 561.484 490.534C561.203 490.906 560.812 491.361 560.312 491.898L558.352 493.994V494.062H562.409V495H556.903ZM563.777 493.21V492.341L567.612 486.273H568.243V487.619H567.817L564.919 492.205V492.273H570.084V493.21H563.777ZM567.885 495V492.946V492.541V486.273H568.891V495H567.885Z" fill="#0FBA7F"/>
<path d="M515.903 538V537.233L518.784 534.08C519.122 533.71 519.401 533.389 519.619 533.116C519.838 532.841 520 532.582 520.105 532.341C520.213 532.097 520.267 531.841 520.267 531.574C520.267 531.267 520.193 531.001 520.045 530.777C519.901 530.553 519.702 530.379 519.449 530.257C519.196 530.135 518.912 530.074 518.597 530.074C518.261 530.074 517.969 530.143 517.719 530.283C517.472 530.419 517.28 530.611 517.143 530.858C517.01 531.105 516.943 531.395 516.943 531.727H515.938C515.938 531.216 516.055 530.767 516.291 530.381C516.527 529.994 516.848 529.693 517.254 529.477C517.663 529.261 518.122 529.153 518.631 529.153C519.142 529.153 519.595 529.261 519.99 529.477C520.385 529.693 520.695 529.984 520.919 530.351C521.143 530.717 521.256 531.125 521.256 531.574C521.256 531.895 521.197 532.209 521.081 532.516C520.967 532.82 520.768 533.159 520.484 533.534C520.203 533.906 519.812 534.361 519.312 534.898L517.352 536.994V537.062H521.409V538H515.903ZM522.777 536.21V535.341L526.612 529.273H527.243V530.619H526.817L523.919 535.205V535.273H529.084V536.21H522.777ZM526.885 538V535.946V535.541V529.273H527.891V538H526.885Z" fill="#0FBA7F"/>
<rect x="510.5" y="479.5" width="25" height="25" stroke="#0FBA7F"/>
<path d="M543 504L546 504L546 480L543 480" stroke="#0FBA7F"/>
<path d="M546 492L552 492" stroke="#0FBA7F"/>
<path d="M511 512L511 515L535 515L535 512" stroke="#0FBA7F"/>
<path d="M523 515L523 521" stroke="#0FBA7F"/>
<path d="M454.291 1054.55V1072H452.177V1056.76H452.075L447.814 1059.59V1057.44L452.177 1054.55H454.291ZM465.004 1072.24C463.72 1072.24 462.626 1071.89 461.723 1071.19C460.819 1070.49 460.129 1069.47 459.652 1068.13C459.174 1066.79 458.936 1065.17 458.936 1063.27C458.936 1061.39 459.174 1059.78 459.652 1058.44C460.135 1057.1 460.828 1056.08 461.731 1055.37C462.64 1054.66 463.731 1054.31 465.004 1054.31C466.277 1054.31 467.365 1054.66 468.268 1055.37C469.177 1056.08 469.87 1057.1 470.348 1058.44C470.831 1059.78 471.072 1061.39 471.072 1063.27C471.072 1065.17 470.833 1066.79 470.356 1068.13C469.879 1069.47 469.189 1070.49 468.285 1071.19C467.382 1071.89 466.288 1072.24 465.004 1072.24ZM465.004 1070.36C466.277 1070.36 467.265 1069.75 467.97 1068.52C468.674 1067.3 469.027 1065.55 469.027 1063.27C469.027 1061.76 468.865 1060.47 468.541 1059.41C468.223 1058.35 467.762 1057.54 467.16 1056.98C466.564 1056.43 465.845 1056.15 465.004 1056.15C463.743 1056.15 462.757 1056.77 462.047 1058.01C461.336 1059.25 460.981 1061.01 460.981 1063.27C460.981 1064.78 461.14 1066.07 461.458 1067.12C461.777 1068.18 462.234 1068.99 462.831 1069.54C463.433 1070.09 464.157 1070.36 465.004 1070.36ZM480.004 1072.24C478.72 1072.24 477.626 1071.89 476.723 1071.19C475.819 1070.49 475.129 1069.47 474.652 1068.13C474.174 1066.79 473.936 1065.17 473.936 1063.27C473.936 1061.39 474.174 1059.78 474.652 1058.44C475.135 1057.1 475.828 1056.08 476.731 1055.37C477.64 1054.66 478.731 1054.31 480.004 1054.31C481.277 1054.31 482.365 1054.66 483.268 1055.37C484.177 1056.08 484.87 1057.1 485.348 1058.44C485.831 1059.78 486.072 1061.39 486.072 1063.27C486.072 1065.17 485.833 1066.79 485.356 1068.13C484.879 1069.47 484.189 1070.49 483.285 1071.19C482.382 1071.89 481.288 1072.24 480.004 1072.24ZM480.004 1070.36C481.277 1070.36 482.265 1069.75 482.97 1068.52C483.674 1067.3 484.027 1065.55 484.027 1063.27C484.027 1061.76 483.865 1060.47 483.541 1059.41C483.223 1058.35 482.762 1057.54 482.16 1056.98C481.564 1056.43 480.845 1056.15 480.004 1056.15C478.743 1056.15 477.757 1056.77 477.047 1058.01C476.336 1059.25 475.981 1061.01 475.981 1063.27C475.981 1064.78 476.14 1066.07 476.458 1067.12C476.777 1068.18 477.234 1068.99 477.831 1069.54C478.433 1070.09 479.157 1070.36 480.004 1070.36ZM498.208 1068.73V1067.81C498.208 1067.17 498.339 1066.59 498.6 1066.06C498.868 1065.53 499.254 1065.1 499.76 1064.78C500.271 1064.46 500.89 1064.3 501.618 1064.3C502.356 1064.3 502.975 1064.46 503.475 1064.78C503.975 1065.1 504.353 1065.53 504.609 1066.06C504.865 1066.59 504.993 1067.17 504.993 1067.81V1068.73C504.993 1069.36 504.862 1069.95 504.6 1070.48C504.345 1071.01 503.964 1071.44 503.458 1071.76C502.958 1072.08 502.345 1072.24 501.618 1072.24C500.879 1072.24 500.257 1072.08 499.751 1071.76C499.245 1071.44 498.862 1071.01 498.6 1070.48C498.339 1069.95 498.208 1069.36 498.208 1068.73ZM499.947 1067.81V1068.73C499.947 1069.26 500.072 1069.73 500.322 1070.15C500.572 1070.57 501.004 1070.77 501.618 1070.77C502.214 1070.77 502.635 1070.57 502.879 1070.15C503.129 1069.73 503.254 1069.26 503.254 1068.73V1067.81C503.254 1067.28 503.135 1066.81 502.896 1066.39C502.657 1065.97 502.231 1065.76 501.618 1065.76C501.021 1065.76 500.592 1065.97 500.331 1066.39C500.075 1066.81 499.947 1067.28 499.947 1067.81ZM489.515 1058.74V1057.82C489.515 1057.18 489.646 1056.6 489.907 1056.07C490.174 1055.54 490.561 1055.11 491.066 1054.79C491.578 1054.47 492.197 1054.31 492.924 1054.31C493.663 1054.31 494.282 1054.47 494.782 1054.79C495.282 1055.11 495.66 1055.54 495.916 1056.07C496.172 1056.6 496.299 1057.18 496.299 1057.82V1058.74C496.299 1059.37 496.169 1059.96 495.907 1060.49C495.652 1061.02 495.271 1061.45 494.765 1061.77C494.265 1062.09 493.652 1062.25 492.924 1062.25C492.186 1062.25 491.564 1062.09 491.058 1061.77C490.552 1061.45 490.169 1061.02 489.907 1060.49C489.646 1059.96 489.515 1059.37 489.515 1058.74ZM491.254 1057.82V1058.74C491.254 1059.27 491.379 1059.74 491.629 1060.16C491.879 1060.58 492.311 1060.78 492.924 1060.78C493.521 1060.78 493.941 1060.58 494.186 1060.16C494.436 1059.74 494.561 1059.27 494.561 1058.74V1057.82C494.561 1057.29 494.441 1056.82 494.203 1056.4C493.964 1055.98 493.538 1055.77 492.924 1055.77C492.328 1055.77 491.899 1055.98 491.637 1056.4C491.382 1056.82 491.254 1057.29 491.254 1057.82ZM490.163 1072L502.163 1054.55H504.106L492.106 1072H490.163ZM525.413 1058.91C525.311 1058.05 524.896 1057.38 524.169 1056.9C523.441 1056.42 522.549 1056.18 521.493 1056.18C520.72 1056.18 520.044 1056.31 519.464 1056.56C518.89 1056.81 518.441 1057.15 518.118 1057.59C517.799 1058.03 517.64 1058.52 517.64 1059.08C517.64 1059.55 517.751 1059.95 517.973 1060.28C518.2 1060.61 518.49 1060.89 518.842 1061.11C519.194 1061.32 519.564 1061.5 519.95 1061.64C520.336 1061.78 520.691 1061.89 521.015 1061.98L522.788 1062.45C523.243 1062.57 523.748 1062.74 524.305 1062.95C524.868 1063.16 525.404 1063.45 525.916 1063.81C526.433 1064.17 526.859 1064.63 527.194 1065.19C527.529 1065.75 527.697 1066.44 527.697 1067.26C527.697 1068.2 527.45 1069.06 526.956 1069.82C526.467 1070.58 525.751 1071.18 524.808 1071.63C523.87 1072.08 522.731 1072.31 521.39 1072.31C520.14 1072.31 519.058 1072.11 518.143 1071.7C517.234 1071.3 516.518 1070.74 515.995 1070.01C515.478 1069.29 515.186 1068.45 515.118 1067.5H517.299C517.356 1068.16 517.578 1068.7 517.964 1069.14C518.356 1069.56 518.85 1069.88 519.447 1070.09C520.049 1070.3 520.697 1070.4 521.39 1070.4C522.197 1070.4 522.922 1070.27 523.564 1070.01C524.206 1069.74 524.714 1069.37 525.089 1068.9C525.464 1068.42 525.652 1067.86 525.652 1067.23C525.652 1066.65 525.49 1066.18 525.166 1065.81C524.842 1065.45 524.416 1065.15 523.887 1064.93C523.359 1064.7 522.788 1064.5 522.174 1064.33L520.027 1063.72C518.663 1063.32 517.583 1062.76 516.788 1062.04C515.993 1061.31 515.595 1060.36 515.595 1059.18C515.595 1058.2 515.859 1057.35 516.387 1056.62C516.922 1055.89 517.637 1055.32 518.535 1054.92C519.439 1054.51 520.447 1054.31 521.561 1054.31C522.686 1054.31 523.686 1054.51 524.561 1054.91C525.436 1055.31 526.129 1055.86 526.64 1056.55C527.157 1057.24 527.43 1058.03 527.458 1058.91H525.413ZM536.218 1072.27C534.99 1072.27 533.934 1071.98 533.047 1071.4C532.161 1070.82 531.479 1070.03 531.002 1069.01C530.525 1067.99 530.286 1066.83 530.286 1065.52C530.286 1064.19 530.53 1063.02 531.019 1062C531.513 1060.98 532.201 1060.18 533.081 1059.61C533.968 1059.03 535.002 1058.74 536.184 1058.74C537.104 1058.74 537.934 1058.91 538.672 1059.25C539.411 1059.59 540.016 1060.07 540.488 1060.68C540.959 1061.3 541.252 1062.01 541.365 1062.83H539.354C539.201 1062.23 538.86 1061.7 538.331 1061.24C537.809 1060.78 537.104 1060.55 536.218 1060.55C535.434 1060.55 534.746 1060.75 534.155 1061.16C533.57 1061.56 533.113 1062.13 532.783 1062.87C532.459 1063.61 532.297 1064.47 532.297 1065.45C532.297 1066.47 532.456 1067.35 532.775 1068.1C533.098 1068.85 533.553 1069.43 534.138 1069.84C534.729 1070.26 535.422 1070.47 536.218 1070.47C536.74 1070.47 537.215 1070.38 537.641 1070.19C538.067 1070.01 538.428 1069.75 538.723 1069.41C539.019 1069.07 539.229 1068.66 539.354 1068.18H541.365C541.252 1068.95 540.971 1069.65 540.522 1070.27C540.078 1070.88 539.49 1071.37 538.757 1071.74C538.03 1072.09 537.184 1072.27 536.218 1072.27ZM548.158 1072.31C547.328 1072.31 546.576 1072.15 545.9 1071.84C545.223 1071.52 544.686 1071.06 544.289 1070.47C543.891 1069.86 543.692 1069.14 543.692 1068.28C543.692 1067.53 543.84 1066.93 544.135 1066.46C544.431 1065.99 544.826 1065.62 545.32 1065.35C545.814 1065.09 546.36 1064.89 546.956 1064.76C547.559 1064.62 548.164 1064.51 548.772 1064.43C549.567 1064.33 550.212 1064.25 550.706 1064.2C551.206 1064.14 551.57 1064.05 551.797 1063.92C552.03 1063.79 552.147 1063.56 552.147 1063.24V1063.17C552.147 1062.33 551.917 1061.68 551.456 1061.21C551.002 1060.74 550.311 1060.51 549.385 1060.51C548.425 1060.51 547.672 1060.72 547.127 1061.14C546.581 1061.56 546.198 1062.01 545.976 1062.49L544.067 1061.81C544.408 1061.01 544.863 1060.39 545.431 1059.95C546.005 1059.5 546.63 1059.19 547.306 1059.01C547.988 1058.83 548.658 1058.74 549.317 1058.74C549.738 1058.74 550.221 1058.79 550.766 1058.89C551.317 1058.99 551.848 1059.19 552.36 1059.5C552.877 1059.8 553.306 1060.27 553.647 1060.89C553.988 1061.51 554.158 1062.34 554.158 1063.38V1072H552.147V1070.23H552.044C551.908 1070.51 551.681 1070.82 551.363 1071.14C551.044 1071.46 550.621 1071.74 550.093 1071.97C549.564 1072.19 548.919 1072.31 548.158 1072.31ZM548.465 1070.5C549.26 1070.5 549.931 1070.34 550.476 1070.03C551.027 1069.72 551.442 1069.32 551.721 1068.82C552.005 1068.33 552.147 1067.81 552.147 1067.26V1065.42C552.061 1065.52 551.874 1065.62 551.584 1065.7C551.3 1065.78 550.971 1065.85 550.596 1065.91C550.226 1065.97 549.865 1066.02 549.513 1066.07C549.167 1066.11 548.885 1066.14 548.669 1066.17C548.147 1066.24 547.658 1066.35 547.203 1066.5C546.755 1066.65 546.391 1066.87 546.113 1067.18C545.84 1067.47 545.703 1067.87 545.703 1068.39C545.703 1069.09 545.962 1069.61 546.479 1069.97C547.002 1070.32 547.664 1070.5 548.465 1070.5ZM559.841 1054.55V1072H557.829V1054.55H559.841ZM569.013 1072.27C567.752 1072.27 566.664 1071.99 565.749 1071.44C564.84 1070.88 564.138 1070.09 563.644 1069.09C563.155 1068.07 562.911 1066.9 562.911 1065.56C562.911 1064.22 563.155 1063.03 563.644 1062.01C564.138 1060.98 564.826 1060.18 565.706 1059.61C566.593 1059.03 567.627 1058.74 568.809 1058.74C569.49 1058.74 570.164 1058.85 570.828 1059.08C571.493 1059.31 572.098 1059.68 572.644 1060.19C573.189 1060.69 573.624 1061.36 573.948 1062.2C574.272 1063.03 574.434 1064.06 574.434 1065.28V1066.14H564.343V1064.4H572.388C572.388 1063.66 572.24 1063 571.945 1062.42C571.655 1061.84 571.24 1061.38 570.701 1061.05C570.167 1060.71 569.536 1060.55 568.809 1060.55C568.007 1060.55 567.314 1060.74 566.729 1061.14C566.15 1061.53 565.703 1062.05 565.391 1062.68C565.078 1063.31 564.922 1063.98 564.922 1064.7V1065.86C564.922 1066.85 565.093 1067.69 565.434 1068.38C565.78 1069.06 566.26 1069.58 566.874 1069.94C567.488 1070.29 568.201 1070.47 569.013 1070.47C569.542 1070.47 570.019 1070.39 570.445 1070.24C570.877 1070.09 571.249 1069.86 571.561 1069.56C571.874 1069.26 572.115 1068.87 572.286 1068.42L574.229 1068.97C574.025 1069.62 573.681 1070.2 573.198 1070.7C572.715 1071.2 572.118 1071.59 571.408 1071.86C570.698 1072.14 569.9 1072.27 569.013 1072.27Z" fill="#999999"/>
<rect x="1252" width="1022" height="1022" fill="#F7F7F7"/>
<rect x="1893" y="686" width="24" height="1" fill="#D9D9D9"/>
<path d="M2016.81 446V444.466L2022.57 438.159C2023.25 437.42 2023.8 436.778 2024.24 436.233C2024.68 435.682 2025 435.165 2025.21 434.682C2025.43 434.193 2025.54 433.682 2025.54 433.148C2025.54 432.534 2025.39 432.003 2025.09 431.554C2024.8 431.105 2024.4 430.759 2023.9 430.514C2023.39 430.27 2022.82 430.148 2022.19 430.148C2021.52 430.148 2020.94 430.287 2020.44 430.565C2019.94 430.838 2019.56 431.222 2019.29 431.716C2019.02 432.21 2018.89 432.79 2018.89 433.455H2016.88C2016.88 432.432 2017.11 431.534 2017.58 430.761C2018.05 429.989 2018.7 429.386 2019.51 428.955C2020.33 428.523 2021.25 428.307 2022.26 428.307C2023.29 428.307 2024.19 428.523 2024.98 428.955C2025.77 429.386 2026.39 429.969 2026.84 430.702C2027.29 431.435 2027.51 432.25 2027.51 433.148C2027.51 433.79 2027.4 434.418 2027.16 435.031C2026.94 435.639 2026.54 436.318 2025.97 437.068C2025.41 437.812 2024.63 438.722 2023.63 439.795L2019.71 443.989V444.125H2027.82V446H2016.81ZM2030.55 442.42V440.682L2038.23 428.545H2039.49V431.239H2038.63L2032.84 440.409V440.545H2043.17V442.42H2030.55ZM2038.77 446V441.892V441.082V428.545H2040.78V446H2038.77Z" fill="#0FBA7F"/>
<path d="M1628.96 313.909V327H1627.37V315.571H1627.3L1624.1 317.693V316.082L1627.37 313.909H1628.96Z" fill="#0FBA7F"/>
<path d="M1665.96 272.909V286H1664.37V274.571H1664.3L1661.1 276.693V275.082L1664.37 272.909H1665.96Z" fill="#0FBA7F"/>
<path d="M1767.81 697V695.466L1773.57 689.159C1774.25 688.42 1774.8 687.778 1775.24 687.233C1775.68 686.682 1776 686.165 1776.21 685.682C1776.43 685.193 1776.54 684.682 1776.54 684.148C1776.54 683.534 1776.39 683.003 1776.09 682.554C1775.8 682.105 1775.4 681.759 1774.9 681.514C1774.39 681.27 1773.82 681.148 1773.19 681.148C1772.52 681.148 1771.94 681.287 1771.44 681.565C1770.94 681.838 1770.56 682.222 1770.29 682.716C1770.02 683.21 1769.89 683.79 1769.89 684.455H1767.88C1767.88 683.432 1768.11 682.534 1768.58 681.761C1769.05 680.989 1769.7 680.386 1770.51 679.955C1771.33 679.523 1772.25 679.307 1773.26 679.307C1774.29 679.307 1775.19 679.523 1775.98 679.955C1776.77 680.386 1777.39 680.969 1777.84 681.702C1778.29 682.435 1778.51 683.25 1778.51 684.148C1778.51 684.79 1778.4 685.418 1778.16 686.031C1777.94 686.639 1777.54 687.318 1776.97 688.068C1776.41 688.812 1775.63 689.722 1774.63 690.795L1770.71 694.989V695.125H1778.82V697H1767.81ZM1781.55 693.42V691.682L1789.23 679.545H1790.49V682.239H1789.63L1783.84 691.409V691.545H1794.17V693.42H1781.55ZM1789.77 697V692.892V692.082V679.545H1791.78V697H1789.77Z" fill="#0FBA7F"/>
<g clip-path="url(#clip0_1014_199397)">
<rect x="1661" y="317" width="10" height="10" fill="#0FBA7F" fill-opacity="0.3"/>
</g>
<rect x="1659.5" y="315.5" width="243" height="243" stroke="#0FBA7F" stroke-width="3"/>
<path d="M1917 557L1947 557L1947 317L1917 317" stroke="#0FBA7F" stroke-width="3"/>
<path d="M1653 314L1649 314L1649 327L1653 327" stroke="#0FBA7F"/>
<path d="M1671 309L1671 305L1658 305L1658 309" stroke="#0FBA7F"/>
<path d="M1661 573L1661 603L1901 603L1901 573" stroke="#0FBA7F" stroke-width="3"/>
<path d="M1947 437L2007 437" stroke="#0FBA7F" stroke-width="3"/>
<path d="M1649 320L1640 320" stroke="#0FBA7F"/>
<path d="M1665 305L1665 296" stroke="#0FBA7F"/>
<path d="M1781 603L1781 663" stroke="#0FBA7F" stroke-width="3"/>
<path d="M1698.79 1054.55V1072H1696.68V1056.76H1696.57L1692.31 1059.59V1057.44L1696.68 1054.55H1698.79ZM1709.5 1072.24C1708.22 1072.24 1707.13 1071.89 1706.22 1071.19C1705.32 1070.49 1704.63 1069.47 1704.15 1068.13C1703.67 1066.79 1703.44 1065.17 1703.44 1063.27C1703.44 1061.39 1703.67 1059.78 1704.15 1058.44C1704.63 1057.1 1705.33 1056.08 1706.23 1055.37C1707.14 1054.66 1708.23 1054.31 1709.5 1054.31C1710.78 1054.31 1711.86 1054.66 1712.77 1055.37C1713.68 1056.08 1714.37 1057.1 1714.85 1058.44C1715.33 1059.78 1715.57 1061.39 1715.57 1063.27C1715.57 1065.17 1715.33 1066.79 1714.86 1068.13C1714.38 1069.47 1713.69 1070.49 1712.79 1071.19C1711.88 1071.89 1710.79 1072.24 1709.5 1072.24ZM1709.5 1070.36C1710.78 1070.36 1711.77 1069.75 1712.47 1068.52C1713.17 1067.3 1713.53 1065.55 1713.53 1063.27C1713.53 1061.76 1713.36 1060.47 1713.04 1059.41C1712.72 1058.35 1712.26 1057.54 1711.66 1056.98C1711.06 1056.43 1710.34 1056.15 1709.5 1056.15C1708.24 1056.15 1707.26 1056.77 1706.55 1058.01C1705.84 1059.25 1705.48 1061.01 1705.48 1063.27C1705.48 1064.78 1705.64 1066.07 1705.96 1067.12C1706.28 1068.18 1706.73 1068.99 1707.33 1069.54C1707.93 1070.09 1708.66 1070.36 1709.5 1070.36ZM1724.5 1072.24C1723.22 1072.24 1722.13 1071.89 1721.22 1071.19C1720.32 1070.49 1719.63 1069.47 1719.15 1068.13C1718.67 1066.79 1718.44 1065.17 1718.44 1063.27C1718.44 1061.39 1718.67 1059.78 1719.15 1058.44C1719.63 1057.1 1720.33 1056.08 1721.23 1055.37C1722.14 1054.66 1723.23 1054.31 1724.5 1054.31C1725.78 1054.31 1726.86 1054.66 1727.77 1055.37C1728.68 1056.08 1729.37 1057.1 1729.85 1058.44C1730.33 1059.78 1730.57 1061.39 1730.57 1063.27C1730.57 1065.17 1730.33 1066.79 1729.86 1068.13C1729.38 1069.47 1728.69 1070.49 1727.79 1071.19C1726.88 1071.89 1725.79 1072.24 1724.5 1072.24ZM1724.5 1070.36C1725.78 1070.36 1726.77 1069.75 1727.47 1068.52C1728.17 1067.3 1728.53 1065.55 1728.53 1063.27C1728.53 1061.76 1728.36 1060.47 1728.04 1059.41C1727.72 1058.35 1727.26 1057.54 1726.66 1056.98C1726.06 1056.43 1725.34 1056.15 1724.5 1056.15C1723.24 1056.15 1722.26 1056.77 1721.55 1058.01C1720.84 1059.25 1720.48 1061.01 1720.48 1063.27C1720.48 1064.78 1720.64 1066.07 1720.96 1067.12C1721.28 1068.18 1721.73 1068.99 1722.33 1069.54C1722.93 1070.09 1723.66 1070.36 1724.5 1070.36ZM1739.5 1072.24C1738.22 1072.24 1737.13 1071.89 1736.22 1071.19C1735.32 1070.49 1734.63 1069.47 1734.15 1068.13C1733.67 1066.79 1733.44 1065.17 1733.44 1063.27C1733.44 1061.39 1733.67 1059.78 1734.15 1058.44C1734.63 1057.1 1735.33 1056.08 1736.23 1055.37C1737.14 1054.66 1738.23 1054.31 1739.5 1054.31C1740.78 1054.31 1741.86 1054.66 1742.77 1055.37C1743.68 1056.08 1744.37 1057.1 1744.85 1058.44C1745.33 1059.78 1745.57 1061.39 1745.57 1063.27C1745.57 1065.17 1745.33 1066.79 1744.86 1068.13C1744.38 1069.47 1743.69 1070.49 1742.79 1071.19C1741.88 1071.89 1740.79 1072.24 1739.5 1072.24ZM1739.5 1070.36C1740.78 1070.36 1741.77 1069.75 1742.47 1068.52C1743.17 1067.3 1743.53 1065.55 1743.53 1063.27C1743.53 1061.76 1743.36 1060.47 1743.04 1059.41C1742.72 1058.35 1742.26 1057.54 1741.66 1056.98C1741.06 1056.43 1740.34 1056.15 1739.5 1056.15C1738.24 1056.15 1737.26 1056.77 1736.55 1058.01C1735.84 1059.25 1735.48 1061.01 1735.48 1063.27C1735.48 1064.78 1735.64 1066.07 1735.96 1067.12C1736.28 1068.18 1736.73 1068.99 1737.33 1069.54C1737.93 1070.09 1738.66 1070.36 1739.5 1070.36ZM1757.71 1068.73V1067.81C1757.71 1067.17 1757.84 1066.59 1758.1 1066.06C1758.37 1065.53 1758.75 1065.1 1759.26 1064.78C1759.77 1064.46 1760.39 1064.3 1761.12 1064.3C1761.86 1064.3 1762.48 1064.46 1762.98 1064.78C1763.48 1065.1 1763.85 1065.53 1764.11 1066.06C1764.36 1066.59 1764.49 1067.17 1764.49 1067.81V1068.73C1764.49 1069.36 1764.36 1069.95 1764.1 1070.48C1763.84 1071.01 1763.46 1071.44 1762.96 1071.76C1762.46 1072.08 1761.84 1072.24 1761.12 1072.24C1760.38 1072.24 1759.76 1072.08 1759.25 1071.76C1758.75 1071.44 1758.36 1071.01 1758.1 1070.48C1757.84 1069.95 1757.71 1069.36 1757.71 1068.73ZM1759.45 1067.81V1068.73C1759.45 1069.26 1759.57 1069.73 1759.82 1070.15C1760.07 1070.57 1760.5 1070.77 1761.12 1070.77C1761.71 1070.77 1762.13 1070.57 1762.38 1070.15C1762.63 1069.73 1762.75 1069.26 1762.75 1068.73V1067.81C1762.75 1067.28 1762.63 1066.81 1762.4 1066.39C1762.16 1065.97 1761.73 1065.76 1761.12 1065.76C1760.52 1065.76 1760.09 1065.97 1759.83 1066.39C1759.57 1066.81 1759.45 1067.28 1759.45 1067.81ZM1749.02 1058.74V1057.82C1749.02 1057.18 1749.15 1056.6 1749.41 1056.07C1749.67 1055.54 1750.06 1055.11 1750.57 1054.79C1751.08 1054.47 1751.7 1054.31 1752.42 1054.31C1753.16 1054.31 1753.78 1054.47 1754.28 1054.79C1754.78 1055.11 1755.16 1055.54 1755.42 1056.07C1755.67 1056.6 1755.8 1057.18 1755.8 1057.82V1058.74C1755.8 1059.37 1755.67 1059.96 1755.41 1060.49C1755.15 1061.02 1754.77 1061.45 1754.27 1061.77C1753.77 1062.09 1753.15 1062.25 1752.42 1062.25C1751.69 1062.25 1751.06 1062.09 1750.56 1061.77C1750.05 1061.45 1749.67 1061.02 1749.41 1060.49C1749.15 1059.96 1749.02 1059.37 1749.02 1058.74ZM1750.75 1057.82V1058.74C1750.75 1059.27 1750.88 1059.74 1751.13 1060.16C1751.38 1060.58 1751.81 1060.78 1752.42 1060.78C1753.02 1060.78 1753.44 1060.58 1753.69 1060.16C1753.94 1059.74 1754.06 1059.27 1754.06 1058.74V1057.82C1754.06 1057.29 1753.94 1056.82 1753.7 1056.4C1753.46 1055.98 1753.04 1055.77 1752.42 1055.77C1751.83 1055.77 1751.4 1055.98 1751.14 1056.4C1750.88 1056.82 1750.75 1057.29 1750.75 1057.82ZM1749.66 1072L1761.66 1054.55H1763.61L1751.61 1072H1749.66ZM1784.91 1058.91C1784.81 1058.05 1784.4 1057.38 1783.67 1056.9C1782.94 1056.42 1782.05 1056.18 1780.99 1056.18C1780.22 1056.18 1779.54 1056.31 1778.96 1056.56C1778.39 1056.81 1777.94 1057.15 1777.62 1057.59C1777.3 1058.03 1777.14 1058.52 1777.14 1059.08C1777.14 1059.55 1777.25 1059.95 1777.47 1060.28C1777.7 1060.61 1777.99 1060.89 1778.34 1061.11C1778.69 1061.32 1779.06 1061.5 1779.45 1061.64C1779.84 1061.78 1780.19 1061.89 1780.52 1061.98L1782.29 1062.45C1782.74 1062.57 1783.25 1062.74 1783.81 1062.95C1784.37 1063.16 1784.9 1063.45 1785.42 1063.81C1785.93 1064.17 1786.36 1064.63 1786.69 1065.19C1787.03 1065.75 1787.2 1066.44 1787.2 1067.26C1787.2 1068.2 1786.95 1069.06 1786.46 1069.82C1785.97 1070.58 1785.25 1071.18 1784.31 1071.63C1783.37 1072.08 1782.23 1072.31 1780.89 1072.31C1779.64 1072.31 1778.56 1072.11 1777.64 1071.7C1776.73 1071.3 1776.02 1070.74 1775.5 1070.01C1774.98 1069.29 1774.69 1068.45 1774.62 1067.5H1776.8C1776.86 1068.16 1777.08 1068.7 1777.46 1069.14C1777.86 1069.56 1778.35 1069.88 1778.95 1070.09C1779.55 1070.3 1780.2 1070.4 1780.89 1070.4C1781.7 1070.4 1782.42 1070.27 1783.06 1070.01C1783.71 1069.74 1784.21 1069.37 1784.59 1068.9C1784.96 1068.42 1785.15 1067.86 1785.15 1067.23C1785.15 1066.65 1784.99 1066.18 1784.67 1065.81C1784.34 1065.45 1783.92 1065.15 1783.39 1064.93C1782.86 1064.7 1782.29 1064.5 1781.67 1064.33L1779.53 1063.72C1778.16 1063.32 1777.08 1062.76 1776.29 1062.04C1775.49 1061.31 1775.09 1060.36 1775.09 1059.18C1775.09 1058.2 1775.36 1057.35 1775.89 1056.62C1776.42 1055.89 1777.14 1055.32 1778.04 1054.92C1778.94 1054.51 1779.95 1054.31 1781.06 1054.31C1782.19 1054.31 1783.19 1054.51 1784.06 1054.91C1784.94 1055.31 1785.63 1055.86 1786.14 1056.55C1786.66 1057.24 1786.93 1058.03 1786.96 1058.91H1784.91ZM1795.72 1072.27C1794.49 1072.27 1793.43 1071.98 1792.55 1071.4C1791.66 1070.82 1790.98 1070.03 1790.5 1069.01C1790.02 1067.99 1789.79 1066.83 1789.79 1065.52C1789.79 1064.19 1790.03 1063.02 1790.52 1062C1791.01 1060.98 1791.7 1060.18 1792.58 1059.61C1793.47 1059.03 1794.5 1058.74 1795.68 1058.74C1796.6 1058.74 1797.43 1058.91 1798.17 1059.25C1798.91 1059.59 1799.52 1060.07 1799.99 1060.68C1800.46 1061.3 1800.75 1062.01 1800.87 1062.83H1798.85C1798.7 1062.23 1798.36 1061.7 1797.83 1061.24C1797.31 1060.78 1796.6 1060.55 1795.72 1060.55C1794.93 1060.55 1794.25 1060.75 1793.66 1061.16C1793.07 1061.56 1792.61 1062.13 1792.28 1062.87C1791.96 1063.61 1791.8 1064.47 1791.8 1065.45C1791.8 1066.47 1791.96 1067.35 1792.27 1068.1C1792.6 1068.85 1793.05 1069.43 1793.64 1069.84C1794.23 1070.26 1794.92 1070.47 1795.72 1070.47C1796.24 1070.47 1796.71 1070.38 1797.14 1070.19C1797.57 1070.01 1797.93 1069.75 1798.22 1069.41C1798.52 1069.07 1798.73 1068.66 1798.85 1068.18H1800.87C1800.75 1068.95 1800.47 1069.65 1800.02 1070.27C1799.58 1070.88 1798.99 1071.37 1798.26 1071.74C1797.53 1072.09 1796.68 1072.27 1795.72 1072.27ZM1807.66 1072.31C1806.83 1072.31 1806.08 1072.15 1805.4 1071.84C1804.72 1071.52 1804.19 1071.06 1803.79 1070.47C1803.39 1069.86 1803.19 1069.14 1803.19 1068.28C1803.19 1067.53 1803.34 1066.93 1803.64 1066.46C1803.93 1065.99 1804.33 1065.62 1804.82 1065.35C1805.31 1065.09 1805.86 1064.89 1806.46 1064.76C1807.06 1064.62 1807.66 1064.51 1808.27 1064.43C1809.07 1064.33 1809.71 1064.25 1810.21 1064.2C1810.71 1064.14 1811.07 1064.05 1811.3 1063.92C1811.53 1063.79 1811.65 1063.56 1811.65 1063.24V1063.17C1811.65 1062.33 1811.42 1061.68 1810.96 1061.21C1810.5 1060.74 1809.81 1060.51 1808.89 1060.51C1807.93 1060.51 1807.17 1060.72 1806.63 1061.14C1806.08 1061.56 1805.7 1062.01 1805.48 1062.49L1803.57 1061.81C1803.91 1061.01 1804.36 1060.39 1804.93 1059.95C1805.5 1059.5 1806.13 1059.19 1806.81 1059.01C1807.49 1058.83 1808.16 1058.74 1808.82 1058.74C1809.24 1058.74 1809.72 1058.79 1810.27 1058.89C1810.82 1058.99 1811.35 1059.19 1811.86 1059.5C1812.38 1059.8 1812.81 1060.27 1813.15 1060.89C1813.49 1061.51 1813.66 1062.34 1813.66 1063.38V1072H1811.65V1070.23H1811.54C1811.41 1070.51 1811.18 1070.82 1810.86 1071.14C1810.54 1071.46 1810.12 1071.74 1809.59 1071.97C1809.06 1072.19 1808.42 1072.31 1807.66 1072.31ZM1807.96 1070.5C1808.76 1070.5 1809.43 1070.34 1809.98 1070.03C1810.53 1069.72 1810.94 1069.32 1811.22 1068.82C1811.5 1068.33 1811.65 1067.81 1811.65 1067.26V1065.42C1811.56 1065.52 1811.37 1065.62 1811.08 1065.7C1810.8 1065.78 1810.47 1065.85 1810.1 1065.91C1809.73 1065.97 1809.37 1066.02 1809.01 1066.07C1808.67 1066.11 1808.39 1066.14 1808.17 1066.17C1807.65 1066.24 1807.16 1066.35 1806.7 1066.5C1806.25 1066.65 1805.89 1066.87 1805.61 1067.18C1805.34 1067.47 1805.2 1067.87 1805.2 1068.39C1805.2 1069.09 1805.46 1069.61 1805.98 1069.97C1806.5 1070.32 1807.16 1070.5 1807.96 1070.5ZM1819.34 1054.55V1072H1817.33V1054.55H1819.34ZM1828.51 1072.27C1827.25 1072.27 1826.16 1071.99 1825.25 1071.44C1824.34 1070.88 1823.64 1070.09 1823.14 1069.09C1822.66 1068.07 1822.41 1066.9 1822.41 1065.56C1822.41 1064.22 1822.66 1063.03 1823.14 1062.01C1823.64 1060.98 1824.33 1060.18 1825.21 1059.61C1826.09 1059.03 1827.13 1058.74 1828.31 1058.74C1828.99 1058.74 1829.66 1058.85 1830.33 1059.08C1830.99 1059.31 1831.6 1059.68 1832.14 1060.19C1832.69 1060.69 1833.12 1061.36 1833.45 1062.2C1833.77 1063.03 1833.93 1064.06 1833.93 1065.28V1066.14H1823.84V1064.4H1831.89C1831.89 1063.66 1831.74 1063 1831.44 1062.42C1831.16 1061.84 1830.74 1061.38 1830.2 1061.05C1829.67 1060.71 1829.04 1060.55 1828.31 1060.55C1827.51 1060.55 1826.81 1060.74 1826.23 1061.14C1825.65 1061.53 1825.2 1062.05 1824.89 1062.68C1824.58 1063.31 1824.42 1063.98 1824.42 1064.7V1065.86C1824.42 1066.85 1824.59 1067.69 1824.93 1068.38C1825.28 1069.06 1825.76 1069.58 1826.37 1069.94C1826.99 1070.29 1827.7 1070.47 1828.51 1070.47C1829.04 1070.47 1829.52 1070.39 1829.94 1070.24C1830.38 1070.09 1830.75 1069.86 1831.06 1069.56C1831.37 1069.26 1831.62 1068.87 1831.79 1068.42L1833.73 1068.97C1833.52 1069.62 1833.18 1070.2 1832.7 1070.7C1832.21 1071.2 1831.62 1071.59 1830.91 1071.86C1830.2 1072.14 1829.4 1072.27 1828.51 1072.27Z" fill="#999999"/>
<defs>
<clipPath id="clip0_1014_199397">
<rect x="1661" y="317" width="240" height="240" fill="white"/>
</clipPath>
</defs>
</svg>
