<svg width="2274" height="1124" viewBox="0 0 2274 1124" fill="none" xmlns="http://www.w3.org/2000/svg">
<rect width="1022" height="1022" fill="#F7F7F7"/>
<path d="M764.807 446V444.466L770.568 438.159C771.244 437.42 771.801 436.778 772.239 436.233C772.676 435.682 773 435.165 773.21 434.682C773.426 434.193 773.534 433.682 773.534 433.148C773.534 432.534 773.386 432.003 773.091 431.554C772.801 431.105 772.403 430.759 771.898 430.514C771.392 430.27 770.824 430.148 770.193 430.148C769.523 430.148 768.938 430.287 768.438 430.565C767.943 430.838 767.56 431.222 767.287 431.716C767.02 432.21 766.886 432.79 766.886 433.455H764.875C764.875 432.432 765.111 431.534 765.582 430.761C766.054 429.989 766.696 429.386 767.509 428.955C768.327 428.523 769.244 428.307 770.261 428.307C771.284 428.307 772.19 428.523 772.98 428.955C773.77 429.386 774.389 429.969 774.838 430.702C775.287 431.435 775.511 432.25 775.511 433.148C775.511 433.79 775.395 434.418 775.162 435.031C774.935 435.639 774.537 436.318 773.969 437.068C773.406 437.812 772.625 438.722 771.625 439.795L767.705 443.989V444.125H775.818V446H764.807ZM785.031 446.239C783.747 446.239 782.653 445.889 781.75 445.19C780.847 444.486 780.156 443.466 779.679 442.131C779.202 440.79 778.963 439.17 778.963 437.273C778.963 435.386 779.202 433.776 779.679 432.44C780.162 431.099 780.855 430.077 781.759 429.372C782.668 428.662 783.759 428.307 785.031 428.307C786.304 428.307 787.392 428.662 788.295 429.372C789.205 430.077 789.898 431.099 790.375 432.44C790.858 433.776 791.099 435.386 791.099 437.273C791.099 439.17 790.861 440.79 790.384 442.131C789.906 443.466 789.216 444.486 788.312 445.19C787.409 445.889 786.315 446.239 785.031 446.239ZM785.031 444.364C786.304 444.364 787.293 443.75 787.997 442.523C788.702 441.295 789.054 439.545 789.054 437.273C789.054 435.761 788.892 434.474 788.568 433.412C788.25 432.349 787.79 431.54 787.188 430.983C786.591 430.426 785.872 430.148 785.031 430.148C783.77 430.148 782.784 430.77 782.074 432.014C781.364 433.253 781.009 435.006 781.009 437.273C781.009 438.784 781.168 440.068 781.486 441.125C781.804 442.182 782.261 442.986 782.858 443.537C783.46 444.088 784.185 444.364 785.031 444.364Z" fill="#0FBA7F"/>
<path d="M515.807 697V695.466L521.568 689.159C522.244 688.42 522.801 687.778 523.239 687.233C523.676 686.682 524 686.165 524.21 685.682C524.426 685.193 524.534 684.682 524.534 684.148C524.534 683.534 524.386 683.003 524.091 682.554C523.801 682.105 523.403 681.759 522.898 681.514C522.392 681.27 521.824 681.148 521.193 681.148C520.523 681.148 519.938 681.287 519.438 681.565C518.943 681.838 518.56 682.222 518.287 682.716C518.02 683.21 517.886 683.79 517.886 684.455H515.875C515.875 683.432 516.111 682.534 516.582 681.761C517.054 680.989 517.696 680.386 518.509 679.955C519.327 679.523 520.244 679.307 521.261 679.307C522.284 679.307 523.19 679.523 523.98 679.955C524.77 680.386 525.389 680.969 525.838 681.702C526.287 682.435 526.511 683.25 526.511 684.148C526.511 684.79 526.395 685.418 526.162 686.031C525.935 686.639 525.537 687.318 524.969 688.068C524.406 688.812 523.625 689.722 522.625 690.795L518.705 694.989V695.125H526.818V697H515.807ZM536.031 697.239C534.747 697.239 533.653 696.889 532.75 696.19C531.847 695.486 531.156 694.466 530.679 693.131C530.202 691.79 529.963 690.17 529.963 688.273C529.963 686.386 530.202 684.776 530.679 683.44C531.162 682.099 531.855 681.077 532.759 680.372C533.668 679.662 534.759 679.307 536.031 679.307C537.304 679.307 538.392 679.662 539.295 680.372C540.205 681.077 540.898 682.099 541.375 683.44C541.858 684.776 542.099 686.386 542.099 688.273C542.099 690.17 541.861 691.79 541.384 693.131C540.906 694.466 540.216 695.486 539.312 696.19C538.409 696.889 537.315 697.239 536.031 697.239ZM536.031 695.364C537.304 695.364 538.293 694.75 538.997 693.523C539.702 692.295 540.054 690.545 540.054 688.273C540.054 686.761 539.892 685.474 539.568 684.412C539.25 683.349 538.79 682.54 538.188 681.983C537.591 681.426 536.872 681.148 536.031 681.148C534.77 681.148 533.784 681.77 533.074 683.014C532.364 684.253 532.009 686.006 532.009 688.273C532.009 689.784 532.168 691.068 532.486 692.125C532.804 693.182 533.261 693.986 533.858 694.537C534.46 695.088 535.185 695.364 536.031 695.364Z" fill="#0FBA7F"/>
<rect x="407.5" y="315.5" width="243" height="243" stroke="#0FBA7F" stroke-width="3"/>
<rect x="429" y="337" width="200" height="200" fill="#0FBA7F" fill-opacity="0.3"/>
<path d="M665 537L695 537L695 337L665 337" stroke="#0FBA7F" stroke-width="3"/>
<path d="M429 573L429 603L629 603L629 573" stroke="#0FBA7F" stroke-width="3"/>
<path d="M695 437L755 437" stroke="#0FBA7F" stroke-width="3"/>
<path d="M529 603L529 663" stroke="#0FBA7F" stroke-width="3"/>
<path d="M1.72159 1075V1057.55H4.88352V1072.35H12.571V1075H1.72159ZM15.179 1075V1061.91H18.2642V1075H15.179ZM16.7301 1060.05C16.2415 1060.05 15.821 1059.89 15.4688 1059.57C15.1165 1059.24 14.9403 1058.84 14.9403 1058.38C14.9403 1057.91 15.1165 1057.52 15.4688 1057.2C15.821 1056.87 16.2415 1056.7 16.7301 1056.7C17.2244 1056.7 17.6449 1056.87 17.9915 1057.2C18.3438 1057.52 18.5199 1057.91 18.5199 1058.38C18.5199 1058.84 18.3438 1059.24 17.9915 1059.57C17.6449 1059.89 17.2244 1060.05 16.7301 1060.05ZM33.13 1061.91L28.468 1075H25.0589L20.397 1061.91H23.6868L26.6953 1071.63H26.8317L29.8487 1061.91H33.13ZM40.6151 1075.26C39.3026 1075.26 38.169 1074.98 37.2145 1074.44C36.2656 1073.89 35.5355 1073.11 35.0241 1072.1C34.5128 1071.09 34.2571 1069.9 34.2571 1068.53C34.2571 1067.18 34.5128 1066 35.0241 1064.99C35.5412 1063.96 36.2628 1063.17 37.1889 1062.6C38.1151 1062.03 39.2031 1061.74 40.4531 1061.74C41.2599 1061.74 42.0213 1061.87 42.7372 1062.13C43.4588 1062.39 44.0952 1062.78 44.6463 1063.32C45.2031 1063.86 45.6406 1064.55 45.9588 1065.39C46.277 1066.22 46.4361 1067.2 46.4361 1068.35V1069.3H35.706V1067.22H43.4787C43.473 1066.63 43.3452 1066.1 43.0952 1065.64C42.8452 1065.18 42.4957 1064.81 42.0469 1064.54C41.6037 1064.28 41.0866 1064.14 40.4957 1064.14C39.8651 1064.14 39.3111 1064.3 38.8338 1064.6C38.3565 1064.9 37.9844 1065.3 37.7173 1065.8C37.456 1066.28 37.3224 1066.82 37.3168 1067.41V1069.22C37.3168 1069.98 37.456 1070.64 37.7344 1071.18C38.0128 1071.72 38.402 1072.14 38.902 1072.43C39.402 1072.71 39.9872 1072.85 40.6577 1072.85C41.1065 1072.85 41.5128 1072.79 41.8764 1072.66C42.2401 1072.53 42.5554 1072.34 42.8224 1072.09C43.0895 1071.84 43.2912 1071.53 43.4276 1071.16L46.3082 1071.49C46.1264 1072.25 45.7798 1072.91 45.2685 1073.48C44.7628 1074.05 44.1151 1074.48 43.3253 1074.8C42.5355 1075.1 41.6321 1075.26 40.6151 1075.26ZM57.3771 1075H54.0021L60.147 1057.55H64.0504L70.2038 1075H66.8288L62.1669 1061.12H62.0305L57.3771 1075ZM57.4879 1068.16H66.6925V1070.7H57.4879V1068.16ZM72.3665 1075V1061.91H75.358V1064.09H75.4943C75.733 1063.34 76.142 1062.75 76.7216 1062.34C77.3068 1061.93 77.9744 1061.72 78.7244 1061.72C78.8949 1061.72 79.0852 1061.73 79.2955 1061.75C79.5114 1061.76 79.6903 1061.78 79.8324 1061.81V1064.64C79.7017 1064.6 79.4943 1064.56 79.2102 1064.53C78.9318 1064.49 78.6619 1064.47 78.4006 1064.47C77.8381 1064.47 77.3324 1064.59 76.8835 1064.83C76.4403 1065.07 76.0909 1065.4 75.8352 1065.83C75.5795 1066.26 75.4517 1066.75 75.4517 1067.3V1075H72.3665ZM87.1385 1075.26C85.826 1075.26 84.6925 1074.98 83.7379 1074.44C82.7891 1073.89 82.0589 1073.11 81.5476 1072.1C81.0362 1071.09 80.7805 1069.9 80.7805 1068.53C80.7805 1067.18 81.0362 1066 81.5476 1064.99C82.0646 1063.96 82.7862 1063.17 83.7124 1062.6C84.6385 1062.03 85.7266 1061.74 86.9766 1061.74C87.7834 1061.74 88.5447 1061.87 89.2607 1062.13C89.9822 1062.39 90.6186 1062.78 91.1697 1063.32C91.7266 1063.86 92.1641 1064.55 92.4822 1065.39C92.8004 1066.22 92.9595 1067.2 92.9595 1068.35V1069.3H82.2294V1067.22H90.0021C89.9964 1066.63 89.8686 1066.1 89.6186 1065.64C89.3686 1065.18 89.0192 1064.81 88.5703 1064.54C88.1271 1064.28 87.6101 1064.14 87.0192 1064.14C86.3885 1064.14 85.8345 1064.3 85.3572 1064.6C84.88 1064.9 84.5078 1065.3 84.2408 1065.8C83.9794 1066.28 83.8459 1066.82 83.8402 1067.41V1069.22C83.8402 1069.98 83.9794 1070.64 84.2578 1071.18C84.5362 1071.72 84.9254 1072.14 85.4254 1072.43C85.9254 1072.71 86.5107 1072.85 87.1811 1072.85C87.63 1072.85 88.0362 1072.79 88.3999 1072.66C88.7635 1072.53 89.0788 1072.34 89.3459 1072.09C89.6129 1071.84 89.8146 1071.53 89.951 1071.16L92.8317 1071.49C92.6499 1072.25 92.3033 1072.91 91.7919 1073.48C91.2862 1074.05 90.6385 1074.48 89.8487 1074.8C89.0589 1075.1 88.1555 1075.26 87.1385 1075.26ZM99.3366 1075.26C98.5071 1075.26 97.7599 1075.12 97.0952 1074.82C96.4361 1074.52 95.9134 1074.08 95.527 1073.49C95.1463 1072.91 94.956 1072.18 94.956 1071.33C94.956 1070.59 95.0923 1069.98 95.3651 1069.49C95.6378 1069.01 96.0099 1068.62 96.4815 1068.34C96.9531 1068.05 97.4844 1067.83 98.0753 1067.68C98.6719 1067.53 99.2884 1067.41 99.9247 1067.35C100.692 1067.27 101.314 1067.2 101.791 1067.13C102.268 1067.07 102.615 1066.96 102.831 1066.83C103.053 1066.68 103.163 1066.47 103.163 1066.17V1066.12C103.163 1065.48 102.973 1064.98 102.592 1064.63C102.212 1064.28 101.663 1064.1 100.947 1064.1C100.192 1064.1 99.5923 1064.26 99.1491 1064.59C98.7116 1064.92 98.4162 1065.31 98.2628 1065.76L95.3821 1065.35C95.6094 1064.56 95.9844 1063.89 96.5071 1063.36C97.0298 1062.82 97.669 1062.41 98.4247 1062.15C99.1804 1061.88 100.016 1061.74 100.93 1061.74C101.561 1061.74 102.189 1061.81 102.814 1061.96C103.439 1062.11 104.01 1062.35 104.527 1062.69C105.044 1063.03 105.459 1063.49 105.771 1064.07C106.089 1064.64 106.249 1065.37 106.249 1066.24V1075H103.283V1073.2H103.18C102.993 1073.57 102.729 1073.91 102.388 1074.22C102.053 1074.54 101.629 1074.79 101.118 1074.98C100.612 1075.17 100.018 1075.26 99.3366 1075.26ZM100.138 1073C100.757 1073 101.294 1072.87 101.749 1072.63C102.203 1072.38 102.553 1072.05 102.797 1071.64C103.047 1071.23 103.172 1070.79 103.172 1070.3V1068.76C103.075 1068.84 102.911 1068.91 102.678 1068.98C102.45 1069.05 102.195 1069.11 101.911 1069.16C101.626 1069.21 101.345 1069.26 101.067 1069.3C100.788 1069.34 100.547 1069.37 100.342 1069.4C99.8821 1069.46 99.4702 1069.57 99.1065 1069.71C98.7429 1069.85 98.456 1070.05 98.2457 1070.3C98.0355 1070.55 97.9304 1070.88 97.9304 1071.28C97.9304 1071.84 98.1378 1072.27 98.5526 1072.56C98.9673 1072.85 99.4957 1073 100.138 1073Z" fill="#121212"/>
<path d="M4.06 1107.4C4.68533 1107.4 5.236 1107.58 5.712 1107.95C6.188 1108.3 6.56133 1108.81 6.832 1109.47C7.10267 1110.14 7.238 1110.92 7.238 1111.81C7.238 1112.71 7.10267 1113.49 6.832 1114.15C6.56133 1114.81 6.188 1115.33 5.712 1115.69C5.236 1116.05 4.68533 1116.24 4.06 1116.24C3.444 1116.24 2.89333 1116.05 2.408 1115.69C1.932 1115.33 1.55867 1114.81 1.288 1114.15C1.01733 1113.49 0.882 1112.71 0.882 1111.81C0.882 1110.92 1.01733 1110.14 1.288 1109.47C1.55867 1108.81 1.932 1108.3 2.408 1107.95C2.89333 1107.58 3.444 1107.4 4.06 1107.4ZM4.06 1108.44C3.65867 1108.44 3.29933 1108.58 2.982 1108.86C2.674 1109.13 2.43133 1109.52 2.254 1110.03C2.07667 1110.54 1.988 1111.13 1.988 1111.81C1.988 1112.49 2.07667 1113.09 2.254 1113.6C2.43133 1114.11 2.674 1114.5 2.982 1114.78C3.29933 1115.06 3.66333 1115.2 4.074 1115.2C4.47533 1115.2 4.83 1115.06 5.138 1114.78C5.45533 1114.5 5.698 1114.11 5.866 1113.6C6.04333 1113.09 6.132 1112.49 6.132 1111.81C6.132 1111.13 6.04333 1110.54 5.866 1110.03C5.698 1109.52 5.45533 1109.13 5.138 1108.86C4.83 1108.58 4.47067 1108.44 4.06 1108.44ZM9.268 1106.42H10.43V1119.09H9.268V1106.42ZM10.164 1111.48H12.502V1112.46H10.164V1111.48ZM22.7769 1106.42H23.9389V1119.11H22.7769V1106.42ZM17.2609 1107.4C17.8862 1107.4 18.4369 1107.58 18.9129 1107.95C19.3982 1108.3 19.7762 1108.81 20.0469 1109.47C20.3269 1110.14 20.4669 1110.92 20.4669 1111.81C20.4669 1112.71 20.3269 1113.49 20.0469 1114.15C19.7762 1114.81 19.3982 1115.33 18.9129 1115.69C18.4369 1116.05 17.8862 1116.24 17.2609 1116.24C16.6356 1116.24 16.0802 1116.05 15.5949 1115.69C15.1096 1115.33 14.7269 1114.81 14.4469 1114.15C14.1762 1113.49 14.0409 1112.71 14.0409 1111.81C14.0409 1110.92 14.1762 1110.14 14.4469 1109.47C14.7269 1108.81 15.1096 1108.3 15.5949 1107.95C16.0802 1107.58 16.6356 1107.4 17.2609 1107.4ZM17.2609 1108.44C16.8409 1108.44 16.4722 1108.58 16.1549 1108.86C15.8469 1109.13 15.6042 1109.52 15.4269 1110.03C15.2496 1110.54 15.1609 1111.13 15.1609 1111.81C15.1609 1112.49 15.2496 1113.09 15.4269 1113.6C15.6042 1114.11 15.8469 1114.5 16.1549 1114.78C16.4722 1115.06 16.8409 1115.2 17.2609 1115.2C17.6716 1115.2 18.0309 1115.06 18.3389 1114.78C18.6562 1114.5 18.9036 1114.11 19.0809 1113.6C19.2582 1113.09 19.3469 1112.49 19.3469 1111.81C19.3469 1111.13 19.2582 1110.54 19.0809 1110.03C18.9036 1109.52 18.6562 1109.13 18.3389 1108.86C18.0309 1108.58 17.6716 1108.44 17.2609 1108.44ZM27.8158 1107.02H35.9638V1107.98H27.8158V1107.02ZM35.3338 1107.02H36.4818V1108.1C36.4818 1108.69 36.4678 1109.32 36.4398 1109.99C36.4118 1110.66 36.3091 1111.43 36.1318 1112.3L34.9838 1112.2C35.1611 1111.35 35.2638 1110.6 35.2918 1109.95C35.3198 1109.3 35.3338 1108.68 35.3338 1108.1V1107.02ZM35.6558 1109.35V1110.22L27.6758 1110.58L27.5078 1109.6L35.6558 1109.35ZM26.4718 1113.14H37.8818V1114.08H26.4718V1113.14ZM31.1058 1111.31H32.2678V1113.74H31.1058V1111.31ZM27.9138 1117.94H36.7618V1118.9H27.9138V1117.94ZM27.9138 1115.16H29.0758V1118.32H27.9138V1115.16ZM44.6322 1107.02H52.7802V1107.98H44.6322V1107.02ZM52.1502 1107.02H53.2982V1108.1C53.2982 1108.69 53.2842 1109.32 53.2562 1109.99C53.2282 1110.66 53.1256 1111.43 52.9482 1112.3L51.8002 1112.2C51.9776 1111.35 52.0802 1110.6 52.1082 1109.95C52.1362 1109.3 52.1502 1108.68 52.1502 1108.1V1107.02ZM52.4722 1109.35V1110.22L44.4922 1110.58L44.3242 1109.6L52.4722 1109.35ZM43.2882 1113.14H54.6982V1114.08H43.2882V1113.14ZM47.9222 1111.31H49.0842V1113.74H47.9222V1111.31ZM44.7302 1117.94H53.5782V1118.9H44.7302V1117.94ZM44.7302 1115.16H45.8922V1118.32H44.7302V1115.16ZM61.5991 1110.02H63.7551V1110.96H61.5991V1110.02ZM65.7151 1106.44H66.8211V1115.93H65.7151V1106.44ZM63.2651 1106.69H64.3711V1115.59H63.2651V1106.69ZM58.6171 1117.86H67.1991V1118.81H58.6171V1117.86ZM58.6171 1114.88H59.7791V1118.42H58.6171V1114.88ZM56.7271 1112.88H57.5251C58.1878 1112.88 58.7711 1112.87 59.2751 1112.86C59.7885 1112.84 60.2691 1112.81 60.7171 1112.76C61.1651 1112.71 61.6178 1112.64 62.0751 1112.55L62.2011 1113.48C61.7158 1113.58 61.2445 1113.66 60.7871 1113.72C60.3298 1113.76 59.8398 1113.8 59.3171 1113.81C58.8038 1113.82 58.2065 1113.83 57.5251 1113.83H56.7271V1112.88ZM56.7271 1107.47H61.5151V1108.42H57.8471V1113.23H56.7271V1107.47ZM57.4971 1110.15H61.0111V1111.06H57.4971V1110.15ZM70.502 1113.25H79.196V1114.19H70.502V1113.25ZM69.032 1116.49H80.512V1117.45H69.032V1116.49ZM70.502 1107.51H79.07V1108.47H71.678V1113.53H70.502V1107.51ZM71.314 1110.33H78.79V1111.27H71.314V1110.33ZM83.4509 1110.23H92.0609V1111.17H83.4509V1110.23ZM81.8969 1112.86H93.3769V1113.81H81.8969V1112.86ZM83.4509 1106.88H84.5989V1110.71H83.4509V1106.88ZM83.3669 1117.83H92.1309V1118.78H83.3669V1117.83ZM83.3669 1115.09H84.5289V1118.08H83.3669V1115.09ZM99.0813 1118V1117.11L102.442 1113.43C102.837 1113 103.161 1112.62 103.417 1112.3C103.672 1111.98 103.861 1111.68 103.983 1111.4C104.109 1111.11 104.172 1110.81 104.172 1110.5C104.172 1110.14 104.086 1109.83 103.914 1109.57C103.745 1109.31 103.513 1109.11 103.218 1108.97C102.923 1108.82 102.591 1108.75 102.223 1108.75C101.832 1108.75 101.491 1108.83 101.199 1109C100.911 1109.16 100.687 1109.38 100.528 1109.67C100.372 1109.96 100.294 1110.29 100.294 1110.68H99.1211C99.1211 1110.09 99.2586 1109.56 99.5337 1109.11C99.8088 1108.66 100.183 1108.31 100.657 1108.06C101.135 1107.8 101.67 1107.68 102.263 1107.68C102.86 1107.68 103.388 1107.8 103.849 1108.06C104.31 1108.31 104.671 1108.65 104.933 1109.08C105.195 1109.5 105.326 1109.98 105.326 1110.5C105.326 1110.88 105.258 1111.24 105.122 1111.6C104.989 1111.96 104.757 1112.35 104.426 1112.79C104.098 1113.22 103.642 1113.75 103.059 1114.38L100.772 1116.83V1116.91H105.505V1118H99.0813ZM110.879 1118.14C110.13 1118.14 109.492 1117.94 108.965 1117.53C108.438 1117.12 108.035 1116.52 107.757 1115.74C107.478 1114.96 107.339 1114.02 107.339 1112.91C107.339 1111.81 107.478 1110.87 107.757 1110.09C108.038 1109.31 108.443 1108.71 108.97 1108.3C109.5 1107.89 110.136 1107.68 110.879 1107.68C111.621 1107.68 112.256 1107.89 112.783 1108.3C113.313 1108.71 113.718 1109.31 113.996 1110.09C114.278 1110.87 114.419 1111.81 114.419 1112.91C114.419 1114.02 114.279 1114.96 114.001 1115.74C113.723 1116.52 113.32 1117.12 112.793 1117.53C112.266 1117.94 111.628 1118.14 110.879 1118.14ZM110.879 1117.05C111.621 1117.05 112.198 1116.69 112.609 1115.97C113.02 1115.26 113.225 1114.23 113.225 1112.91C113.225 1112.03 113.131 1111.28 112.942 1110.66C112.757 1110.04 112.488 1109.56 112.137 1109.24C111.789 1108.92 111.369 1108.75 110.879 1108.75C110.143 1108.75 109.568 1109.12 109.154 1109.84C108.739 1110.56 108.532 1111.59 108.532 1112.91C108.532 1113.79 108.625 1114.54 108.811 1115.16C108.996 1115.77 109.263 1116.24 109.611 1116.56C109.962 1116.88 110.385 1117.05 110.879 1117.05ZM119.211 1118.16C118.575 1118.16 118.013 1118 117.526 1117.68C117.039 1117.35 116.658 1116.89 116.382 1116.3C116.107 1115.71 115.97 1115.01 115.97 1114.2C115.97 1113.4 116.107 1112.7 116.382 1112.11C116.658 1111.52 117.04 1111.07 117.531 1110.75C118.021 1110.42 118.588 1110.26 119.231 1110.26C119.728 1110.26 120.121 1110.35 120.409 1110.51C120.701 1110.68 120.923 1110.86 121.076 1111.07C121.231 1111.28 121.352 1111.44 121.439 1111.58H121.538V1107.82H122.711V1118H121.578V1116.83H121.439C121.352 1116.97 121.23 1117.14 121.071 1117.35C120.912 1117.56 120.685 1117.75 120.39 1117.92C120.095 1118.08 119.702 1118.16 119.211 1118.16ZM119.37 1117.11C119.841 1117.11 120.239 1116.98 120.564 1116.74C120.888 1116.49 121.135 1116.15 121.304 1115.71C121.473 1115.27 121.558 1114.76 121.558 1114.18C121.558 1113.61 121.475 1113.11 121.309 1112.69C121.144 1112.25 120.898 1111.92 120.574 1111.68C120.249 1111.44 119.848 1111.32 119.37 1111.32C118.873 1111.32 118.459 1111.45 118.127 1111.7C117.799 1111.95 117.552 1112.3 117.387 1112.73C117.224 1113.16 117.143 1113.64 117.143 1114.18C117.143 1114.73 117.226 1115.22 117.392 1115.66C117.561 1116.1 117.809 1116.46 118.137 1116.72C118.469 1116.98 118.88 1117.11 119.37 1117.11ZM125.023 1120.86V1110.36H126.157V1111.58H126.296C126.382 1111.44 126.501 1111.28 126.654 1111.07C126.81 1110.86 127.032 1110.68 127.32 1110.51C127.612 1110.35 128.006 1110.26 128.503 1110.26C129.146 1110.26 129.713 1110.42 130.203 1110.75C130.694 1111.07 131.077 1111.52 131.352 1112.11C131.627 1112.7 131.765 1113.4 131.765 1114.2C131.765 1115.01 131.627 1115.71 131.352 1116.3C131.077 1116.89 130.696 1117.35 130.208 1117.68C129.721 1118 129.159 1118.16 128.523 1118.16C128.033 1118.16 127.64 1118.08 127.345 1117.92C127.05 1117.75 126.823 1117.56 126.664 1117.35C126.505 1117.14 126.382 1116.97 126.296 1116.83H126.196V1120.86H125.023ZM126.176 1114.18C126.176 1114.76 126.261 1115.27 126.43 1115.71C126.599 1116.15 126.846 1116.49 127.171 1116.74C127.496 1116.98 127.893 1117.11 128.364 1117.11C128.855 1117.11 129.264 1116.98 129.592 1116.72C129.923 1116.46 130.172 1116.1 130.338 1115.66C130.507 1115.22 130.591 1114.73 130.591 1114.18C130.591 1113.64 130.508 1113.16 130.343 1112.73C130.18 1112.3 129.933 1111.95 129.602 1111.7C129.274 1111.45 128.861 1111.32 128.364 1111.32C127.887 1111.32 127.486 1111.44 127.161 1111.68C126.836 1111.92 126.591 1112.25 126.425 1112.69C126.259 1113.11 126.176 1113.61 126.176 1114.18ZM138.367 1110.36L140.196 1113.49L142.026 1110.36H143.378L140.912 1114.18L143.378 1118H142.026L140.196 1115.04L138.367 1118H137.015L139.441 1114.18L137.015 1110.36H138.367ZM148.97 1118V1117.11L152.331 1113.43C152.725 1113 153.05 1112.62 153.305 1112.3C153.56 1111.98 153.749 1111.68 153.872 1111.4C153.998 1111.11 154.061 1110.81 154.061 1110.5C154.061 1110.14 153.975 1109.83 153.802 1109.57C153.633 1109.31 153.401 1109.11 153.106 1108.97C152.811 1108.82 152.48 1108.75 152.112 1108.75C151.721 1108.75 151.38 1108.83 151.088 1109C150.8 1109.16 150.576 1109.38 150.417 1109.67C150.261 1109.96 150.183 1110.29 150.183 1110.68H149.01C149.01 1110.09 149.147 1109.56 149.422 1109.11C149.698 1108.66 150.072 1108.31 150.546 1108.06C151.023 1107.8 151.559 1107.68 152.152 1107.68C152.748 1107.68 153.277 1107.8 153.738 1108.06C154.198 1108.31 154.56 1108.65 154.822 1109.08C155.083 1109.5 155.214 1109.98 155.214 1110.5C155.214 1110.88 155.146 1111.24 155.01 1111.6C154.878 1111.96 154.646 1112.35 154.314 1112.79C153.986 1113.22 153.531 1113.75 152.947 1114.38L150.66 1116.83V1116.91H155.393V1118H148.97ZM160.768 1118.14C160.019 1118.14 159.381 1117.94 158.854 1117.53C158.327 1117.12 157.924 1116.52 157.645 1115.74C157.367 1114.96 157.228 1114.02 157.228 1112.91C157.228 1111.81 157.367 1110.87 157.645 1110.09C157.927 1109.31 158.331 1108.71 158.858 1108.3C159.389 1107.89 160.025 1107.68 160.768 1107.68C161.51 1107.68 162.145 1107.89 162.672 1108.3C163.202 1108.71 163.606 1109.31 163.885 1110.09C164.166 1110.87 164.307 1111.81 164.307 1112.91C164.307 1114.02 164.168 1114.96 163.89 1115.74C163.611 1116.52 163.209 1117.12 162.682 1117.53C162.155 1117.94 161.517 1118.14 160.768 1118.14ZM160.768 1117.05C161.51 1117.05 162.087 1116.69 162.498 1115.97C162.909 1115.26 163.114 1114.23 163.114 1112.91C163.114 1112.03 163.02 1111.28 162.831 1110.66C162.645 1110.04 162.377 1109.56 162.025 1109.24C161.677 1108.92 161.258 1108.75 160.768 1108.75C160.032 1108.75 159.457 1109.12 159.042 1109.84C158.628 1110.56 158.421 1111.59 158.421 1112.91C158.421 1113.79 158.514 1114.54 158.699 1115.16C158.885 1115.77 159.152 1116.24 159.5 1116.56C159.851 1116.88 160.274 1117.05 160.768 1117.05ZM169.1 1118.16C168.464 1118.16 167.902 1118 167.415 1117.68C166.927 1117.35 166.546 1116.89 166.271 1116.3C165.996 1115.71 165.858 1115.01 165.858 1114.2C165.858 1113.4 165.996 1112.7 166.271 1112.11C166.546 1111.52 166.929 1111.07 167.42 1110.75C167.91 1110.42 168.477 1110.26 169.12 1110.26C169.617 1110.26 170.01 1110.35 170.298 1110.51C170.59 1110.68 170.812 1110.86 170.964 1111.07C171.12 1111.28 171.241 1111.44 171.327 1111.58H171.427V1107.82H172.6V1118H171.466V1116.83H171.327C171.241 1116.97 171.118 1117.14 170.959 1117.35C170.8 1117.56 170.573 1117.75 170.278 1117.92C169.983 1118.08 169.59 1118.16 169.1 1118.16ZM169.259 1117.11C169.73 1117.11 170.127 1116.98 170.452 1116.74C170.777 1116.49 171.024 1116.15 171.193 1115.71C171.362 1115.27 171.447 1114.76 171.447 1114.18C171.447 1113.61 171.364 1113.11 171.198 1112.69C171.032 1112.25 170.787 1111.92 170.462 1111.68C170.137 1111.44 169.736 1111.32 169.259 1111.32C168.762 1111.32 168.348 1111.45 168.016 1111.7C167.688 1111.95 167.441 1112.3 167.275 1112.73C167.113 1113.16 167.032 1113.64 167.032 1114.18C167.032 1114.73 167.115 1115.22 167.28 1115.66C167.449 1116.1 167.698 1116.46 168.026 1116.72C168.358 1116.98 168.769 1117.11 169.259 1117.11ZM174.912 1120.86V1110.36H176.045V1111.58H176.184C176.271 1111.44 176.39 1111.28 176.542 1111.07C176.698 1110.86 176.92 1110.68 177.209 1110.51C177.5 1110.35 177.895 1110.26 178.392 1110.26C179.035 1110.26 179.602 1110.42 180.092 1110.75C180.583 1111.07 180.965 1111.52 181.241 1112.11C181.516 1112.7 181.653 1113.4 181.653 1114.2C181.653 1115.01 181.516 1115.71 181.241 1116.3C180.965 1116.89 180.584 1117.35 180.097 1117.68C179.61 1118 179.048 1118.16 178.412 1118.16C177.921 1118.16 177.528 1118.08 177.233 1117.92C176.939 1117.75 176.711 1117.56 176.552 1117.35C176.393 1117.14 176.271 1116.97 176.184 1116.83H176.085V1120.86H174.912ZM176.065 1114.18C176.065 1114.76 176.15 1115.27 176.319 1115.71C176.488 1116.15 176.735 1116.49 177.059 1116.74C177.384 1116.98 177.782 1117.11 178.253 1117.11C178.743 1117.11 179.153 1116.98 179.481 1116.72C179.812 1116.46 180.061 1116.1 180.226 1115.66C180.395 1115.22 180.48 1114.73 180.48 1114.18C180.48 1113.64 180.397 1113.16 180.231 1112.73C180.069 1112.3 179.822 1111.95 179.491 1111.7C179.162 1111.45 178.75 1111.32 178.253 1111.32C177.775 1111.32 177.374 1111.44 177.05 1111.68C176.725 1111.92 176.479 1112.25 176.314 1112.69C176.148 1113.11 176.065 1113.61 176.065 1114.18ZM192.775 1108.26H196.625V1109.19H192.775V1108.26ZM192.775 1111.17H196.625V1112.12H192.775V1111.17ZM190.465 1107.18C191.081 1107.18 191.631 1107.31 192.117 1107.57C192.611 1107.82 192.999 1108.18 193.279 1108.63C193.568 1109.08 193.713 1109.6 193.713 1110.19C193.713 1110.78 193.568 1111.3 193.279 1111.76C192.999 1112.2 192.611 1112.56 192.117 1112.82C191.631 1113.07 191.081 1113.2 190.465 1113.2C189.839 1113.2 189.279 1113.07 188.785 1112.82C188.299 1112.56 187.912 1112.2 187.623 1111.76C187.343 1111.3 187.203 1110.78 187.203 1110.19C187.203 1109.6 187.343 1109.08 187.623 1108.63C187.912 1108.18 188.299 1107.82 188.785 1107.57C189.279 1107.31 189.839 1107.18 190.465 1107.18ZM190.465 1108.17C190.054 1108.17 189.685 1108.26 189.359 1108.42C189.032 1108.59 188.775 1108.83 188.589 1109.14C188.402 1109.44 188.309 1109.79 188.309 1110.19C188.309 1110.58 188.402 1110.93 188.589 1111.24C188.775 1111.54 189.032 1111.77 189.359 1111.95C189.685 1112.12 190.054 1112.2 190.465 1112.2C190.875 1112.2 191.239 1112.12 191.557 1111.95C191.883 1111.77 192.14 1111.54 192.327 1111.24C192.513 1110.93 192.607 1110.58 192.607 1110.19C192.607 1109.79 192.513 1109.44 192.327 1109.14C192.14 1108.83 191.883 1108.59 191.557 1108.42C191.239 1108.26 190.875 1108.17 190.465 1108.17ZM196.261 1106.42H197.423V1113.91H196.261V1106.42ZM193.251 1114.22C194.128 1114.22 194.879 1114.32 195.505 1114.51C196.13 1114.7 196.611 1114.98 196.947 1115.34C197.292 1115.69 197.465 1116.13 197.465 1116.64C197.465 1117.15 197.292 1117.58 196.947 1117.94C196.611 1118.31 196.13 1118.58 195.505 1118.77C194.879 1118.97 194.128 1119.06 193.251 1119.06C192.383 1119.06 191.631 1118.97 190.997 1118.77C190.371 1118.58 189.886 1118.31 189.541 1117.94C189.205 1117.58 189.037 1117.15 189.037 1116.64C189.037 1116.13 189.205 1115.69 189.541 1115.34C189.886 1114.98 190.371 1114.7 190.997 1114.51C191.631 1114.32 192.383 1114.22 193.251 1114.22ZM193.251 1115.13C192.616 1115.13 192.065 1115.19 191.599 1115.31C191.141 1115.43 190.787 1115.61 190.535 1115.83C190.292 1116.05 190.171 1116.32 190.171 1116.64C190.171 1116.95 190.292 1117.22 190.535 1117.44C190.787 1117.66 191.141 1117.84 191.599 1117.96C192.065 1118.08 192.616 1118.14 193.251 1118.14C193.895 1118.14 194.445 1118.08 194.903 1117.96C195.36 1117.84 195.71 1117.66 195.953 1117.44C196.205 1117.22 196.331 1116.95 196.331 1116.64C196.331 1116.32 196.205 1116.05 195.953 1115.83C195.71 1115.61 195.36 1115.43 194.903 1115.31C194.445 1115.19 193.895 1115.13 193.251 1115.13ZM205.654 1108.28H209.504V1109.24H205.654V1108.28ZM205.654 1111.13H209.504V1112.08H205.654V1111.13ZM201.846 1114.58H210.302V1119.09H209.14V1115.52H201.846V1114.58ZM209.14 1106.42H210.302V1113.88H209.14V1106.42ZM203.344 1107.14C203.96 1107.14 204.51 1107.27 204.996 1107.53C205.49 1107.78 205.878 1108.14 206.158 1108.61C206.447 1109.06 206.592 1109.59 206.592 1110.17C206.592 1110.77 206.447 1111.3 206.158 1111.76C205.878 1112.21 205.49 1112.57 204.996 1112.83C204.51 1113.1 203.96 1113.23 203.344 1113.23C202.718 1113.23 202.158 1113.1 201.664 1112.83C201.178 1112.57 200.791 1112.21 200.502 1111.76C200.222 1111.3 200.082 1110.77 200.082 1110.17C200.082 1109.59 200.222 1109.06 200.502 1108.61C200.791 1108.14 201.178 1107.78 201.664 1107.53C202.158 1107.27 202.718 1107.14 203.344 1107.14ZM203.344 1108.13C202.933 1108.13 202.564 1108.22 202.238 1108.4C201.911 1108.57 201.654 1108.82 201.468 1109.12C201.281 1109.43 201.188 1109.78 201.188 1110.17C201.188 1110.58 201.281 1110.93 201.468 1111.25C201.654 1111.56 201.911 1111.8 202.238 1111.98C202.564 1112.15 202.933 1112.23 203.344 1112.23C203.745 1112.23 204.109 1112.15 204.436 1111.98C204.762 1111.8 205.019 1111.56 205.206 1111.25C205.392 1110.93 205.486 1110.58 205.486 1110.17C205.486 1109.78 205.392 1109.43 205.206 1109.12C205.019 1108.82 204.762 1108.57 204.436 1108.4C204.109 1108.22 203.745 1108.13 203.344 1108.13ZM225.368 1106.42H226.53V1115.75H225.368V1106.42ZM226.166 1110.27H228.392V1111.24H226.166V1110.27ZM218.648 1117.86H227.09V1118.81H218.648V1117.86ZM218.648 1114.79H219.796V1118.24H218.648V1114.79ZM220.23 1107.32C220.865 1107.32 221.429 1107.45 221.924 1107.72C222.419 1107.99 222.811 1108.35 223.1 1108.82C223.389 1109.28 223.534 1109.82 223.534 1110.44C223.534 1111.04 223.389 1111.57 223.1 1112.05C222.811 1112.53 222.419 1112.9 221.924 1113.17C221.429 1113.43 220.865 1113.56 220.23 1113.56C219.605 1113.56 219.04 1113.43 218.536 1113.17C218.041 1112.9 217.649 1112.53 217.36 1112.05C217.071 1111.57 216.926 1111.04 216.926 1110.44C216.926 1109.82 217.071 1109.28 217.36 1108.82C217.649 1108.35 218.041 1107.99 218.536 1107.72C219.04 1107.45 219.605 1107.32 220.23 1107.32ZM220.23 1108.33C219.819 1108.33 219.451 1108.41 219.124 1108.59C218.797 1108.77 218.536 1109.02 218.34 1109.33C218.153 1109.65 218.06 1110.02 218.06 1110.44C218.06 1110.85 218.153 1111.21 218.34 1111.53C218.536 1111.85 218.797 1112.1 219.124 1112.27C219.451 1112.45 219.819 1112.54 220.23 1112.54C220.641 1112.54 221.009 1112.45 221.336 1112.27C221.672 1112.1 221.933 1111.85 222.12 1111.53C222.316 1111.21 222.414 1110.85 222.414 1110.44C222.414 1110.02 222.316 1109.65 222.12 1109.33C221.933 1109.02 221.672 1108.77 221.336 1108.59C221.009 1108.41 220.641 1108.33 220.23 1108.33ZM234.719 1111.35H237.099V1112.3H234.719V1111.35ZM239.227 1106.42H240.347V1119.09H239.227V1106.42ZM236.707 1106.69H237.813V1118.45H236.707V1106.69ZM232.423 1107.49C232.974 1107.49 233.45 1107.66 233.851 1108.02C234.262 1108.37 234.579 1108.88 234.803 1109.54C235.027 1110.21 235.139 1110.99 235.139 1111.88C235.139 1112.79 235.027 1113.57 234.803 1114.23C234.579 1114.9 234.262 1115.41 233.851 1115.77C233.45 1116.13 232.974 1116.31 232.423 1116.31C231.891 1116.31 231.42 1116.13 231.009 1115.77C230.608 1115.41 230.295 1114.9 230.071 1114.23C229.847 1113.57 229.735 1112.79 229.735 1111.88C229.735 1110.99 229.847 1110.21 230.071 1109.54C230.295 1108.88 230.608 1108.37 231.009 1108.02C231.42 1107.66 231.891 1107.49 232.423 1107.49ZM232.423 1108.56C232.096 1108.56 231.812 1108.7 231.569 1108.97C231.326 1109.24 231.14 1109.62 231.009 1110.12C230.878 1110.61 230.813 1111.2 230.813 1111.88C230.813 1112.56 230.878 1113.16 231.009 1113.66C231.14 1114.15 231.326 1114.54 231.569 1114.81C231.812 1115.08 232.096 1115.21 232.423 1115.21C232.759 1115.21 233.048 1115.08 233.291 1114.81C233.543 1114.54 233.734 1114.15 233.865 1113.66C233.996 1113.16 234.061 1112.56 234.061 1111.88C234.061 1111.2 233.996 1110.61 233.865 1110.12C233.734 1109.62 233.543 1109.24 233.291 1108.97C233.048 1108.7 232.759 1108.56 232.423 1108.56ZM248.788 1110.72H252.302V1111.67H248.788V1110.72ZM245.722 1107.51H246.674V1109.78C246.674 1110.48 246.585 1111.17 246.408 1111.85C246.24 1112.54 245.997 1113.17 245.68 1113.76C245.362 1114.35 244.989 1114.87 244.56 1115.33C244.14 1115.78 243.678 1116.15 243.174 1116.42L242.446 1115.48C242.912 1115.26 243.342 1114.94 243.734 1114.54C244.135 1114.14 244.485 1113.68 244.784 1113.17C245.082 1112.65 245.311 1112.1 245.47 1111.53C245.638 1110.95 245.722 1110.37 245.722 1109.78V1107.51ZM245.96 1107.51H246.898V1109.78C246.898 1110.35 246.977 1110.92 247.136 1111.48C247.304 1112.04 247.537 1112.56 247.836 1113.06C248.134 1113.54 248.48 1113.98 248.872 1114.36C249.273 1114.74 249.702 1115.04 250.16 1115.26L249.46 1116.19C248.956 1115.93 248.489 1115.58 248.06 1115.14C247.63 1114.71 247.257 1114.2 246.94 1113.63C246.632 1113.06 246.389 1112.45 246.212 1111.8C246.044 1111.14 245.96 1110.47 245.96 1109.78V1107.51ZM251.728 1106.42H252.876V1119.11H251.728V1106.42ZM262.37 1107.51H263.322V1109.78C263.322 1110.48 263.234 1111.17 263.056 1111.84C262.888 1112.51 262.646 1113.14 262.328 1113.73C262.011 1114.32 261.638 1114.84 261.208 1115.3C260.779 1115.76 260.312 1116.12 259.808 1116.39L259.094 1115.45C259.561 1115.22 259.99 1114.91 260.382 1114.51C260.784 1114.11 261.134 1113.66 261.432 1113.14C261.731 1112.63 261.96 1112.09 262.118 1111.52C262.286 1110.94 262.37 1110.36 262.37 1109.78V1107.51ZM262.58 1107.51H263.518V1109.78C263.518 1110.34 263.598 1110.9 263.756 1111.45C263.924 1112 264.158 1112.52 264.456 1113C264.755 1113.49 265.096 1113.92 265.478 1114.3C265.87 1114.69 266.29 1114.99 266.738 1115.21L266.024 1116.14C265.53 1115.89 265.072 1115.54 264.652 1115.1C264.242 1114.66 263.878 1114.16 263.56 1113.6C263.252 1113.03 263.01 1112.43 262.832 1111.78C262.664 1111.13 262.58 1110.46 262.58 1109.78V1107.51ZM267.844 1106.42H269.006V1119.09H267.844V1106.42ZM268.74 1111.55H271.078V1112.54H268.74V1111.55ZM274.969 1110.72H276.131V1113.1H274.969V1110.72ZM279.617 1110.72H280.765V1113.1H279.617V1110.72ZM272.155 1112.68H283.593V1113.62H272.155V1112.68ZM277.867 1114.58C279.22 1114.58 280.28 1114.78 281.045 1115.16C281.81 1115.54 282.193 1116.09 282.193 1116.81C282.193 1117.54 281.81 1118.09 281.045 1118.48C280.28 1118.87 279.22 1119.06 277.867 1119.06C276.514 1119.06 275.45 1118.87 274.675 1118.48C273.91 1118.09 273.527 1117.54 273.527 1116.81C273.527 1116.09 273.91 1115.54 274.675 1115.16C275.45 1114.78 276.514 1114.58 277.867 1114.58ZM277.867 1115.48C277.204 1115.48 276.635 1115.53 276.159 1115.63C275.692 1115.74 275.333 1115.89 275.081 1116.1C274.829 1116.29 274.703 1116.53 274.703 1116.81C274.703 1117.11 274.829 1117.36 275.081 1117.57C275.333 1117.76 275.692 1117.91 276.159 1118.01C276.635 1118.12 277.204 1118.17 277.867 1118.17C278.53 1118.17 279.094 1118.12 279.561 1118.01C280.037 1117.91 280.401 1117.76 280.653 1117.57C280.905 1117.36 281.031 1117.11 281.031 1116.81C281.031 1116.53 280.905 1116.29 280.653 1116.1C280.401 1115.89 280.037 1115.74 279.561 1115.63C279.094 1115.53 278.53 1115.48 277.867 1115.48ZM277.867 1106.66C278.782 1106.66 279.57 1106.75 280.233 1106.94C280.905 1107.13 281.418 1107.4 281.773 1107.75C282.137 1108.1 282.319 1108.52 282.319 1109.01C282.319 1109.5 282.137 1109.92 281.773 1110.27C281.418 1110.63 280.905 1110.9 280.233 1111.08C279.57 1111.26 278.782 1111.35 277.867 1111.35C276.952 1111.35 276.159 1111.26 275.487 1111.08C274.824 1110.9 274.311 1110.63 273.947 1110.27C273.592 1109.92 273.415 1109.5 273.415 1109.01C273.415 1108.52 273.592 1108.1 273.947 1107.75C274.311 1107.4 274.824 1107.13 275.487 1106.94C276.159 1106.75 276.952 1106.66 277.867 1106.66ZM277.867 1107.57C277.204 1107.57 276.626 1107.63 276.131 1107.74C275.646 1107.85 275.268 1108.01 274.997 1108.23C274.736 1108.44 274.605 1108.7 274.605 1109.01C274.605 1109.31 274.736 1109.57 274.997 1109.8C275.268 1110.01 275.646 1110.17 276.131 1110.29C276.626 1110.4 277.204 1110.45 277.867 1110.45C278.548 1110.45 279.132 1110.4 279.617 1110.29C280.102 1110.17 280.476 1110.01 280.737 1109.8C280.998 1109.57 281.129 1109.31 281.129 1109.01C281.129 1108.7 280.998 1108.44 280.737 1108.23C280.476 1108.01 280.102 1107.85 279.617 1107.74C279.132 1107.63 278.548 1107.57 277.867 1107.57ZM293.616 1106.42H294.764V1119.09H293.616V1106.42ZM294.498 1111.63H296.836V1112.61H294.498V1111.63ZM284.964 1108.45H292.426V1109.4H284.964V1108.45ZM288.758 1110.44C289.355 1110.44 289.883 1110.57 290.34 1110.82C290.807 1111.07 291.171 1111.42 291.432 1111.85C291.703 1112.28 291.838 1112.78 291.838 1113.35C291.838 1113.92 291.703 1114.43 291.432 1114.86C291.171 1115.3 290.807 1115.65 290.34 1115.9C289.883 1116.14 289.355 1116.26 288.758 1116.26C288.161 1116.26 287.629 1116.14 287.162 1115.9C286.705 1115.65 286.341 1115.3 286.07 1114.86C285.799 1114.43 285.664 1113.92 285.664 1113.35C285.664 1112.78 285.799 1112.28 286.07 1111.85C286.341 1111.42 286.705 1111.07 287.162 1110.82C287.629 1110.57 288.161 1110.44 288.758 1110.44ZM288.758 1111.41C288.375 1111.41 288.035 1111.49 287.736 1111.66C287.437 1111.83 287.199 1112.05 287.022 1112.34C286.854 1112.63 286.77 1112.97 286.77 1113.35C286.77 1113.73 286.854 1114.08 287.022 1114.37C287.199 1114.66 287.437 1114.89 287.736 1115.06C288.035 1115.22 288.375 1115.3 288.758 1115.3C289.131 1115.3 289.467 1115.22 289.766 1115.06C290.065 1114.89 290.298 1114.66 290.466 1114.37C290.643 1114.08 290.732 1113.73 290.732 1113.35C290.732 1112.97 290.643 1112.63 290.466 1112.34C290.298 1112.05 290.065 1111.83 289.766 1111.66C289.467 1111.49 289.131 1111.41 288.758 1111.41ZM288.156 1106.58H289.318V1108.87H288.156V1106.58ZM299.453 1110.23H308.063V1111.17H299.453V1110.23ZM297.899 1112.86H309.379V1113.81H297.899V1112.86ZM299.453 1106.88H300.601V1110.71H299.453V1106.88ZM299.369 1117.83H308.133V1118.78H299.369V1117.83ZM299.369 1115.09H300.531V1118.08H299.369V1115.09ZM320.046 1106.44H321.208V1114.99H320.046V1106.44ZM317.33 1109.99H320.284V1110.96H317.33V1109.99ZM316.056 1107.43H317.274C317.274 1108.51 317.045 1109.49 316.588 1110.37C316.13 1111.24 315.468 1111.99 314.6 1112.64C313.741 1113.28 312.71 1113.8 311.506 1114.19L311.002 1113.27C312.075 1112.93 312.985 1112.5 313.732 1111.98C314.488 1111.46 315.062 1110.85 315.454 1110.16C315.855 1109.47 316.056 1108.71 316.056 1107.88V1107.43ZM311.618 1107.43H316.882V1108.38H311.618V1107.43ZM316.546 1113.91H317.54V1114.49C317.54 1115.08 317.409 1115.64 317.148 1116.15C316.896 1116.66 316.546 1117.1 316.098 1117.5C315.659 1117.88 315.155 1118.2 314.586 1118.46C314.016 1118.73 313.414 1118.93 312.78 1119.05L312.318 1118.13C312.878 1118.03 313.41 1117.88 313.914 1117.66C314.427 1117.44 314.88 1117.17 315.272 1116.85C315.664 1116.53 315.972 1116.18 316.196 1115.77C316.429 1115.37 316.546 1114.94 316.546 1114.49V1113.91ZM316.7 1113.91H317.694V1114.49C317.694 1114.93 317.806 1115.36 318.03 1115.76C318.254 1116.15 318.562 1116.51 318.954 1116.82C319.346 1117.14 319.794 1117.41 320.298 1117.62C320.811 1117.84 321.343 1118 321.894 1118.1L321.418 1119.02C320.783 1118.9 320.181 1118.71 319.612 1118.45C319.052 1118.19 318.552 1117.86 318.114 1117.48C317.675 1117.09 317.33 1116.64 317.078 1116.14C316.826 1115.63 316.7 1115.08 316.7 1114.49V1113.91ZM329.383 1107.23C330.269 1107.23 331.058 1107.38 331.749 1107.67C332.439 1107.96 332.985 1108.36 333.387 1108.89C333.788 1109.41 333.989 1110.02 333.989 1110.72C333.989 1111.43 333.788 1112.05 333.387 1112.57C332.985 1113.09 332.439 1113.5 331.749 1113.79C331.058 1114.08 330.269 1114.22 329.383 1114.22C328.515 1114.22 327.731 1114.08 327.031 1113.79C326.34 1113.5 325.794 1113.09 325.393 1112.57C324.991 1112.05 324.791 1111.43 324.791 1110.72C324.791 1110.02 324.991 1109.41 325.393 1108.89C325.794 1108.36 326.34 1107.96 327.031 1107.67C327.731 1107.38 328.515 1107.23 329.383 1107.23ZM329.383 1108.17C328.72 1108.17 328.127 1108.28 327.605 1108.49C327.082 1108.71 326.667 1109.01 326.359 1109.39C326.051 1109.76 325.897 1110.21 325.897 1110.72C325.897 1111.22 326.051 1111.67 326.359 1112.05C326.667 1112.43 327.082 1112.73 327.605 1112.95C328.127 1113.16 328.72 1113.27 329.383 1113.27C330.055 1113.27 330.652 1113.16 331.175 1112.95C331.697 1112.73 332.108 1112.43 332.407 1112.05C332.715 1111.67 332.869 1111.22 332.869 1110.72C332.869 1110.21 332.715 1109.76 332.407 1109.39C332.108 1109.01 331.697 1108.71 331.175 1108.49C330.652 1108.28 330.055 1108.17 329.383 1108.17ZM323.671 1116.45H335.151V1117.41H323.671V1116.45ZM336.55 1116.56H348.03V1117.52H336.55V1116.56ZM341.688 1113.86H342.836V1116.96H341.688V1113.86ZM337.95 1107.36H346.602V1111.2H339.126V1113.73H337.978V1110.27H345.454V1108.31H337.95V1107.36ZM337.978 1113.24H346.896V1114.19H337.978V1113.24ZM362.998 1106.42H364.104V1119.09H362.998V1106.42ZM358.378 1110.97H360.814V1111.92H358.378V1110.97ZM360.464 1106.72H361.556V1118.43H360.464V1106.72ZM355.956 1108.4H356.852V1110.01C356.852 1110.7 356.787 1111.37 356.656 1112.04C356.525 1112.69 356.334 1113.31 356.082 1113.88C355.83 1114.45 355.522 1114.97 355.158 1115.44C354.794 1115.9 354.383 1116.27 353.926 1116.56L353.212 1115.69C353.8 1115.34 354.295 1114.86 354.696 1114.26C355.107 1113.66 355.419 1113 355.634 1112.26C355.849 1111.52 355.956 1110.77 355.956 1110.01V1108.4ZM356.194 1108.4H357.076V1110.01C357.076 1110.73 357.179 1111.45 357.384 1112.15C357.599 1112.85 357.902 1113.48 358.294 1114.05C358.695 1114.61 359.185 1115.06 359.764 1115.4L359.064 1116.26C358.448 1115.88 357.925 1115.37 357.496 1114.74C357.076 1114.09 356.754 1113.37 356.53 1112.55C356.306 1111.73 356.194 1110.88 356.194 1110.01V1108.4ZM353.562 1107.91H359.344V1108.86H353.562V1107.91ZM374.911 1106.44H376.073V1115.93H374.911V1106.44ZM375.709 1110.59H377.935V1111.56H375.709V1110.59ZM366.273 1107.98H373.749V1108.91H366.273V1107.98ZM370.011 1109.6C370.608 1109.6 371.136 1109.7 371.593 1109.91C372.05 1110.1 372.405 1110.38 372.657 1110.73C372.909 1111.08 373.035 1111.49 373.035 1111.97C373.035 1112.44 372.909 1112.86 372.657 1113.21C372.405 1113.56 372.05 1113.83 371.593 1114.02C371.136 1114.22 370.608 1114.32 370.011 1114.32C369.414 1114.32 368.886 1114.22 368.429 1114.02C367.972 1113.83 367.612 1113.56 367.351 1113.21C367.099 1112.86 366.973 1112.44 366.973 1111.97C366.973 1111.49 367.099 1111.08 367.351 1110.73C367.612 1110.38 367.972 1110.1 368.429 1109.91C368.886 1109.7 369.414 1109.6 370.011 1109.6ZM370.011 1110.51C369.442 1110.51 368.98 1110.65 368.625 1110.92C368.27 1111.18 368.093 1111.53 368.093 1111.97C368.093 1112.4 368.27 1112.75 368.625 1113.02C368.98 1113.28 369.442 1113.41 370.011 1113.41C370.59 1113.41 371.052 1113.28 371.397 1113.02C371.752 1112.75 371.929 1112.4 371.929 1111.97C371.929 1111.53 371.752 1111.18 371.397 1110.92C371.052 1110.65 370.59 1110.51 370.011 1110.51ZM369.437 1106.44H370.599V1108.45H369.437V1106.44ZM368.191 1117.86H376.633V1118.81H368.191V1117.86ZM368.191 1115.17H369.339V1118.25H368.191V1115.17ZM387.79 1106.42H388.952V1113.79H387.79V1106.42ZM388.448 1109.66H390.814V1110.64H388.448V1109.66ZM380.986 1114.35H382.134V1115.68H387.79V1114.35H388.952V1118.92H380.986V1114.35ZM382.134 1116.59V1117.99H387.79V1116.59H382.134ZM379.152 1107.72H386.628V1108.66H379.152V1107.72ZM382.89 1109.25C383.496 1109.25 384.024 1109.34 384.472 1109.53C384.929 1109.71 385.284 1109.96 385.536 1110.3C385.788 1110.63 385.914 1111.01 385.914 1111.46C385.914 1111.91 385.788 1112.3 385.536 1112.64C385.284 1112.97 384.929 1113.24 384.472 1113.42C384.024 1113.6 383.496 1113.69 382.89 1113.69C382.283 1113.69 381.751 1113.6 381.294 1113.42C380.846 1113.24 380.491 1112.97 380.23 1112.64C379.978 1112.3 379.852 1111.91 379.852 1111.46C379.852 1111.01 379.978 1110.63 380.23 1110.3C380.491 1109.96 380.846 1109.71 381.294 1109.53C381.751 1109.34 382.283 1109.25 382.89 1109.25ZM382.89 1110.13C382.311 1110.13 381.844 1110.25 381.49 1110.5C381.144 1110.74 380.972 1111.06 380.972 1111.46C380.972 1111.87 381.144 1112.2 381.49 1112.44C381.844 1112.68 382.311 1112.81 382.89 1112.81C383.459 1112.81 383.921 1112.68 384.276 1112.44C384.63 1112.2 384.808 1111.87 384.808 1111.46C384.808 1111.06 384.63 1110.74 384.276 1110.5C383.93 1110.25 383.468 1110.13 382.89 1110.13ZM382.316 1106.31H383.478V1108.23H382.316V1106.31ZM401.215 1106.42H402.363V1119.09H401.215V1106.42ZM392.801 1107.67H393.949V1115.51H392.801V1107.67ZM392.801 1114.82H393.837C394.807 1114.82 395.792 1114.78 396.791 1114.7C397.799 1114.6 398.835 1114.45 399.899 1114.23L400.053 1115.21C398.951 1115.45 397.892 1115.61 396.875 1115.7C395.857 1115.79 394.845 1115.83 393.837 1115.83H392.801V1114.82ZM413.45 1106.42H414.612V1119.11H413.45V1106.42ZM414.346 1111.42H416.684V1112.39H414.346V1111.42ZM405.428 1114.96H406.422C407.196 1114.96 407.906 1114.95 408.55 1114.93C409.203 1114.91 409.828 1114.86 410.426 1114.79C411.032 1114.73 411.648 1114.64 412.274 1114.53L412.414 1115.52C411.76 1115.63 411.126 1115.72 410.51 1115.79C409.903 1115.85 409.268 1115.9 408.606 1115.91C407.943 1115.93 407.215 1115.94 406.422 1115.94H405.428V1114.96ZM405.428 1107.65H411.294V1108.61H406.576V1115.41H405.428V1107.65ZM418.99 1118.08C418.744 1118.08 418.534 1117.99 418.358 1117.82C418.182 1117.64 418.095 1117.43 418.095 1117.18C418.095 1116.94 418.182 1116.73 418.358 1116.55C418.534 1116.38 418.744 1116.29 418.99 1116.29C419.235 1116.29 419.445 1116.38 419.621 1116.55C419.797 1116.73 419.884 1116.94 419.884 1117.18C419.884 1117.35 419.843 1117.5 419.76 1117.63C419.681 1117.77 419.573 1117.88 419.437 1117.96C419.304 1118.04 419.155 1118.08 418.99 1118.08Z" fill="black"/>
<rect x="1252" width="1022" height="1022" fill="#F7F7F7"/>
<path d="M2016.81 446V444.466L2022.57 438.159C2023.25 437.42 2023.8 436.778 2024.24 436.233C2024.68 435.682 2025 435.165 2025.21 434.682C2025.43 434.193 2025.54 433.682 2025.54 433.148C2025.54 432.534 2025.39 432.003 2025.09 431.554C2024.8 431.105 2024.4 430.759 2023.9 430.514C2023.39 430.27 2022.82 430.148 2022.19 430.148C2021.52 430.148 2020.94 430.287 2020.44 430.565C2019.94 430.838 2019.56 431.222 2019.29 431.716C2019.02 432.21 2018.89 432.79 2018.89 433.455H2016.88C2016.88 432.432 2017.11 431.534 2017.58 430.761C2018.05 429.989 2018.7 429.386 2019.51 428.955C2020.33 428.523 2021.25 428.307 2022.26 428.307C2023.29 428.307 2024.19 428.523 2024.98 428.955C2025.77 429.386 2026.39 429.969 2026.84 430.702C2027.29 431.435 2027.51 432.25 2027.51 433.148C2027.51 433.79 2027.4 434.418 2027.16 435.031C2026.94 435.639 2026.54 436.318 2025.97 437.068C2025.41 437.812 2024.63 438.722 2023.63 439.795L2019.71 443.989V444.125H2027.82V446H2016.81ZM2030.55 442.42V440.682L2038.23 428.545H2039.49V431.239H2038.63L2032.84 440.409V440.545H2043.17V442.42H2030.55ZM2038.77 446V441.892V441.082V428.545H2040.78V446H2038.77Z" fill="#0FBA7F"/>
<path d="M1767.81 697V695.466L1773.57 689.159C1774.25 688.42 1774.8 687.778 1775.24 687.233C1775.68 686.682 1776 686.165 1776.21 685.682C1776.43 685.193 1776.54 684.682 1776.54 684.148C1776.54 683.534 1776.39 683.003 1776.09 682.554C1775.8 682.105 1775.4 681.759 1774.9 681.514C1774.39 681.27 1773.82 681.148 1773.19 681.148C1772.52 681.148 1771.94 681.287 1771.44 681.565C1770.94 681.838 1770.56 682.222 1770.29 682.716C1770.02 683.21 1769.89 683.79 1769.89 684.455H1767.88C1767.88 683.432 1768.11 682.534 1768.58 681.761C1769.05 680.989 1769.7 680.386 1770.51 679.955C1771.33 679.523 1772.25 679.307 1773.26 679.307C1774.29 679.307 1775.19 679.523 1775.98 679.955C1776.77 680.386 1777.39 680.969 1777.84 681.702C1778.29 682.435 1778.51 683.25 1778.51 684.148C1778.51 684.79 1778.4 685.418 1778.16 686.031C1777.94 686.639 1777.54 687.318 1776.97 688.068C1776.41 688.812 1775.63 689.722 1774.63 690.795L1770.71 694.989V695.125H1778.82V697H1767.81ZM1781.55 693.42V691.682L1789.23 679.545H1790.49V682.239H1789.63L1783.84 691.409V691.545H1794.17V693.42H1781.55ZM1789.77 697V692.892V692.082V679.545H1791.78V697H1789.77Z" fill="#0FBA7F"/>
<g clip-path="url(#clip0_1015_199402)">
<rect x="1661" y="317" width="240" height="20" fill="#0FBA7F" fill-opacity="0.3"/>
<rect x="1661" y="537" width="240" height="20" fill="#0FBA7F" fill-opacity="0.3"/>
<rect x="1681" y="337" width="200" height="20" transform="rotate(90 1681 337)" fill="#0FBA7F" fill-opacity="0.3"/>
<rect x="1901" y="337" width="200" height="20" transform="rotate(90 1901 337)" fill="#0FBA7F" fill-opacity="0.3"/>
</g>
<rect x="1659.5" y="315.5" width="243" height="243" stroke="#0FBA7F" stroke-width="3"/>
<path d="M1917 557L1947 557L1947 317L1917 317" stroke="#0FBA7F" stroke-width="3"/>
<path d="M1661 573L1661 603L1901 603L1901 573" stroke="#0FBA7F" stroke-width="3"/>
<path d="M1947 437L2007 437" stroke="#0FBA7F" stroke-width="3"/>
<path d="M1781 603L1781 663" stroke="#0FBA7F" stroke-width="3"/>
<path d="M1253.72 1075V1057.55H1260.27C1261.61 1057.55 1262.73 1057.8 1263.64 1058.3C1264.56 1058.8 1265.25 1059.48 1265.71 1060.36C1266.18 1061.23 1266.42 1062.22 1266.42 1063.32C1266.42 1064.44 1266.18 1065.44 1265.71 1066.31C1265.24 1067.18 1264.55 1067.86 1263.62 1068.36C1262.7 1068.86 1261.57 1069.1 1260.22 1069.1H1255.89V1066.5H1259.8C1260.58 1066.5 1261.22 1066.37 1261.72 1066.09C1262.22 1065.82 1262.59 1065.45 1262.83 1064.97C1263.08 1064.49 1263.2 1063.94 1263.2 1063.32C1263.2 1062.7 1263.08 1062.16 1262.83 1061.69C1262.59 1061.22 1262.22 1060.85 1261.72 1060.59C1261.22 1060.32 1260.57 1060.19 1259.78 1060.19H1256.88V1075H1253.72ZM1272.56 1075.26C1271.73 1075.26 1270.99 1075.12 1270.32 1074.82C1269.66 1074.52 1269.14 1074.08 1268.75 1073.49C1268.37 1072.91 1268.18 1072.18 1268.18 1071.33C1268.18 1070.59 1268.32 1069.98 1268.59 1069.49C1268.86 1069.01 1269.24 1068.62 1269.71 1068.34C1270.18 1068.05 1270.71 1067.83 1271.3 1067.68C1271.9 1067.53 1272.51 1067.41 1273.15 1067.35C1273.92 1067.27 1274.54 1067.2 1275.02 1067.13C1275.5 1067.07 1275.84 1066.96 1276.06 1066.83C1276.28 1066.68 1276.39 1066.47 1276.39 1066.17V1066.12C1276.39 1065.48 1276.2 1064.98 1275.82 1064.63C1275.44 1064.28 1274.89 1064.1 1274.17 1064.1C1273.42 1064.1 1272.82 1064.26 1272.38 1064.59C1271.94 1064.92 1271.64 1065.31 1271.49 1065.76L1268.61 1065.35C1268.84 1064.56 1269.21 1063.89 1269.73 1063.36C1270.26 1062.82 1270.9 1062.41 1271.65 1062.15C1272.41 1061.88 1273.24 1061.74 1274.16 1061.74C1274.79 1061.74 1275.42 1061.81 1276.04 1061.96C1276.67 1062.11 1277.24 1062.35 1277.75 1062.69C1278.27 1063.03 1278.69 1063.49 1279 1064.07C1279.32 1064.64 1279.48 1065.37 1279.48 1066.24V1075H1276.51V1073.2H1276.41C1276.22 1073.57 1275.96 1073.91 1275.61 1074.22C1275.28 1074.54 1274.86 1074.79 1274.34 1074.98C1273.84 1075.17 1273.25 1075.26 1272.56 1075.26ZM1273.36 1073C1273.98 1073 1274.52 1072.87 1274.98 1072.63C1275.43 1072.38 1275.78 1072.05 1276.02 1071.64C1276.27 1071.23 1276.4 1070.79 1276.4 1070.3V1068.76C1276.3 1068.84 1276.14 1068.91 1275.9 1068.98C1275.68 1069.05 1275.42 1069.11 1275.14 1069.16C1274.85 1069.21 1274.57 1069.26 1274.29 1069.3C1274.01 1069.34 1273.77 1069.37 1273.57 1069.4C1273.11 1069.46 1272.7 1069.57 1272.33 1069.71C1271.97 1069.85 1271.68 1070.05 1271.47 1070.3C1271.26 1070.55 1271.16 1070.88 1271.16 1071.28C1271.16 1071.84 1271.36 1072.27 1271.78 1072.56C1272.19 1072.85 1272.72 1073 1273.36 1073ZM1287.44 1075.23C1286.41 1075.23 1285.49 1074.97 1284.67 1074.44C1283.86 1073.91 1283.22 1073.14 1282.75 1072.14C1282.28 1071.13 1282.04 1069.91 1282.04 1068.47C1282.04 1067.02 1282.28 1065.79 1282.76 1064.79C1283.24 1063.78 1283.89 1063.03 1284.71 1062.51C1285.53 1062 1286.44 1061.74 1287.44 1061.74C1288.21 1061.74 1288.84 1061.87 1289.34 1062.13C1289.83 1062.39 1290.22 1062.7 1290.51 1063.06C1290.8 1063.42 1291.03 1063.76 1291.19 1064.07H1291.31V1057.55H1294.41V1075H1291.37V1072.94H1291.19C1291.03 1073.26 1290.8 1073.59 1290.5 1073.95C1290.19 1074.3 1289.8 1074.61 1289.3 1074.86C1288.81 1075.11 1288.19 1075.23 1287.44 1075.23ZM1288.3 1072.7C1288.95 1072.7 1289.51 1072.52 1289.97 1072.17C1290.43 1071.81 1290.78 1071.32 1291.01 1070.68C1291.25 1070.04 1291.37 1069.3 1291.37 1068.45C1291.37 1067.61 1291.25 1066.87 1291.01 1066.25C1290.78 1065.62 1290.44 1065.14 1289.98 1064.79C1289.52 1064.44 1288.96 1064.27 1288.3 1064.27C1287.61 1064.27 1287.03 1064.45 1286.57 1064.81C1286.11 1065.16 1285.77 1065.66 1285.53 1066.29C1285.3 1066.92 1285.19 1067.64 1285.19 1068.45C1285.19 1069.27 1285.3 1070 1285.53 1070.64C1285.77 1071.28 1286.12 1071.78 1286.58 1072.15C1287.05 1072.52 1287.62 1072.7 1288.3 1072.7ZM1302.55 1075.23C1301.52 1075.23 1300.6 1074.97 1299.79 1074.44C1298.98 1073.91 1298.34 1073.14 1297.87 1072.14C1297.39 1071.13 1297.16 1069.91 1297.16 1068.47C1297.16 1067.02 1297.4 1065.79 1297.87 1064.79C1298.36 1063.78 1299.01 1063.03 1299.83 1062.51C1300.64 1062 1301.56 1061.74 1302.56 1061.74C1303.33 1061.74 1303.96 1061.87 1304.45 1062.13C1304.95 1062.39 1305.34 1062.7 1305.63 1063.06C1305.92 1063.42 1306.14 1063.76 1306.3 1064.07H1306.43V1057.55H1309.52V1075H1306.49V1072.94H1306.3C1306.14 1073.26 1305.91 1073.59 1305.61 1073.95C1305.31 1074.3 1304.91 1074.61 1304.42 1074.86C1303.92 1075.11 1303.3 1075.23 1302.55 1075.23ZM1303.41 1072.7C1304.07 1072.7 1304.62 1072.52 1305.08 1072.17C1305.54 1071.81 1305.89 1071.32 1306.13 1070.68C1306.37 1070.04 1306.49 1069.3 1306.49 1068.45C1306.49 1067.61 1306.37 1066.87 1306.13 1066.25C1305.9 1065.62 1305.55 1065.14 1305.09 1064.79C1304.64 1064.44 1304.08 1064.27 1303.41 1064.27C1302.73 1064.27 1302.15 1064.45 1301.69 1064.81C1301.23 1065.16 1300.88 1065.66 1300.65 1066.29C1300.42 1066.92 1300.3 1067.64 1300.3 1068.45C1300.3 1069.27 1300.42 1070 1300.65 1070.64C1300.89 1071.28 1301.24 1071.78 1301.7 1072.15C1302.17 1072.52 1302.74 1072.7 1303.41 1072.7ZM1312.81 1075V1061.91H1315.9V1075H1312.81ZM1314.36 1060.05C1313.87 1060.05 1313.45 1059.89 1313.1 1059.57C1312.75 1059.24 1312.57 1058.84 1312.57 1058.38C1312.57 1057.91 1312.75 1057.52 1313.1 1057.2C1313.45 1056.87 1313.87 1056.7 1314.36 1056.7C1314.86 1056.7 1315.28 1056.87 1315.62 1057.2C1315.98 1057.52 1316.15 1057.91 1316.15 1058.38C1316.15 1058.84 1315.98 1059.24 1315.62 1059.57C1315.28 1059.89 1314.86 1060.05 1314.36 1060.05ZM1322.15 1067.33V1075H1319.07V1061.91H1322.02V1064.13H1322.17C1322.47 1063.4 1322.95 1062.82 1323.61 1062.39C1324.28 1061.95 1325.1 1061.74 1326.08 1061.74C1326.98 1061.74 1327.77 1061.93 1328.44 1062.32C1329.11 1062.7 1329.63 1063.26 1330 1064C1330.38 1064.73 1330.56 1065.62 1330.56 1066.66V1075H1327.47V1067.14C1327.47 1066.27 1327.25 1065.58 1326.79 1065.09C1326.34 1064.59 1325.72 1064.35 1324.92 1064.35C1324.38 1064.35 1323.9 1064.47 1323.48 1064.7C1323.07 1064.94 1322.74 1065.28 1322.5 1065.72C1322.27 1066.16 1322.15 1066.7 1322.15 1067.33ZM1339.39 1080.18C1338.28 1080.18 1337.33 1080.03 1336.53 1079.73C1335.74 1079.43 1335.1 1079.04 1334.62 1078.54C1334.13 1078.04 1333.8 1077.48 1333.61 1076.88L1336.39 1076.2C1336.51 1076.46 1336.69 1076.71 1336.93 1076.96C1337.17 1077.22 1337.49 1077.43 1337.9 1077.59C1338.31 1077.76 1338.82 1077.85 1339.44 1077.85C1340.31 1077.85 1341.04 1077.63 1341.61 1077.21C1342.19 1076.79 1342.47 1076.09 1342.47 1075.13V1072.65H1342.32C1342.16 1072.97 1341.93 1073.29 1341.62 1073.63C1341.32 1073.96 1340.92 1074.24 1340.42 1074.47C1339.92 1074.7 1339.3 1074.81 1338.55 1074.81C1337.55 1074.81 1336.63 1074.58 1335.82 1074.11C1335 1073.63 1334.36 1072.92 1333.87 1071.97C1333.4 1071.03 1333.16 1069.84 1333.16 1068.41C1333.16 1066.97 1333.4 1065.76 1333.87 1064.77C1334.36 1063.78 1335.01 1063.03 1335.83 1062.51C1336.64 1062 1337.56 1061.74 1338.56 1061.74C1339.33 1061.74 1339.96 1061.87 1340.45 1062.13C1340.95 1062.39 1341.35 1062.7 1341.65 1063.06C1341.94 1063.42 1342.17 1063.76 1342.32 1064.07H1342.49V1061.91H1345.53V1075.21C1345.53 1076.33 1345.27 1077.26 1344.73 1077.99C1344.2 1078.72 1343.47 1079.27 1342.54 1079.64C1341.62 1080 1340.56 1080.18 1339.39 1080.18ZM1339.41 1072.39C1340.07 1072.39 1340.62 1072.23 1341.08 1071.91C1341.54 1071.6 1341.89 1071.14 1342.13 1070.54C1342.37 1069.95 1342.49 1069.23 1342.49 1068.39C1342.49 1067.57 1342.37 1066.85 1342.13 1066.23C1341.9 1065.61 1341.55 1065.13 1341.09 1064.79C1340.64 1064.44 1340.08 1064.27 1339.41 1064.27C1338.73 1064.27 1338.15 1064.45 1337.69 1064.81C1337.23 1065.16 1336.88 1065.66 1336.65 1066.28C1336.42 1066.9 1336.3 1067.61 1336.3 1068.39C1336.3 1069.2 1336.42 1069.9 1336.65 1070.5C1336.89 1071.1 1337.24 1071.56 1337.7 1071.9C1338.17 1072.23 1338.74 1072.39 1339.41 1072.39Z" fill="#121212"/>
<path d="M1260.19 1111C1260.08 1110.67 1259.94 1110.37 1259.76 1110.1C1259.58 1109.83 1259.37 1109.6 1259.13 1109.41C1258.89 1109.23 1258.61 1109.08 1258.3 1108.98C1258 1108.88 1257.66 1108.83 1257.29 1108.83C1256.69 1108.83 1256.14 1108.99 1255.64 1109.3C1255.15 1109.61 1254.76 1110.07 1254.47 1110.68C1254.17 1111.28 1254.03 1112.03 1254.03 1112.91C1254.03 1113.79 1254.18 1114.53 1254.47 1115.14C1254.77 1115.75 1255.17 1116.21 1255.67 1116.52C1256.17 1116.83 1256.74 1116.99 1257.37 1116.99C1257.95 1116.99 1258.47 1116.86 1258.91 1116.61C1259.36 1116.36 1259.71 1116.01 1259.95 1115.55C1260.21 1115.09 1260.33 1114.55 1260.33 1113.92L1260.71 1114H1257.65V1112.91H1261.53V1114C1261.53 1114.84 1261.35 1115.57 1260.99 1116.19C1260.63 1116.81 1260.14 1117.29 1259.52 1117.63C1258.89 1117.97 1258.18 1118.14 1257.37 1118.14C1256.47 1118.14 1255.68 1117.93 1254.99 1117.5C1254.31 1117.08 1253.78 1116.48 1253.4 1115.69C1253.02 1114.91 1252.84 1113.98 1252.84 1112.91C1252.84 1112.1 1252.94 1111.38 1253.16 1110.74C1253.38 1110.09 1253.69 1109.54 1254.08 1109.09C1254.48 1108.63 1254.95 1108.28 1255.5 1108.04C1256.04 1107.8 1256.64 1107.68 1257.29 1107.68C1257.83 1107.68 1258.33 1107.76 1258.79 1107.92C1259.26 1108.08 1259.67 1108.31 1260.04 1108.6C1260.41 1108.9 1260.71 1109.25 1260.96 1109.65C1261.2 1110.06 1261.37 1110.51 1261.47 1111H1260.19ZM1263.48 1118V1110.36H1264.61V1111.52H1264.69C1264.83 1111.14 1265.08 1110.83 1265.45 1110.6C1265.81 1110.36 1266.22 1110.24 1266.68 1110.24C1266.77 1110.24 1266.87 1110.25 1267 1110.25C1267.13 1110.25 1267.23 1110.26 1267.3 1110.26V1111.46C1267.26 1111.45 1267.17 1111.43 1267.02 1111.41C1266.88 1111.39 1266.74 1111.38 1266.58 1111.38C1266.21 1111.38 1265.88 1111.46 1265.59 1111.61C1265.3 1111.76 1265.07 1111.98 1264.9 1112.25C1264.73 1112.52 1264.65 1112.82 1264.65 1113.17V1118H1263.48ZM1268.69 1118V1110.36H1269.86V1118H1268.69ZM1269.28 1109.09C1269.06 1109.09 1268.86 1109.01 1268.69 1108.86C1268.53 1108.7 1268.45 1108.51 1268.45 1108.3C1268.45 1108.08 1268.53 1107.89 1268.69 1107.73C1268.86 1107.58 1269.06 1107.5 1269.28 1107.5C1269.51 1107.5 1269.71 1107.58 1269.87 1107.73C1270.04 1107.89 1270.12 1108.08 1270.12 1108.3C1270.12 1108.51 1270.04 1108.7 1269.87 1108.86C1269.71 1109.01 1269.51 1109.09 1269.28 1109.09ZM1274.89 1118.16C1274.26 1118.16 1273.69 1118 1273.21 1117.68C1272.72 1117.35 1272.34 1116.89 1272.06 1116.3C1271.79 1115.71 1271.65 1115.01 1271.65 1114.2C1271.65 1113.4 1271.79 1112.7 1272.06 1112.11C1272.34 1111.52 1272.72 1111.07 1273.21 1110.75C1273.7 1110.42 1274.27 1110.26 1274.91 1110.26C1275.41 1110.26 1275.8 1110.35 1276.09 1110.51C1276.38 1110.68 1276.6 1110.86 1276.76 1111.07C1276.91 1111.28 1277.03 1111.44 1277.12 1111.58H1277.22V1107.82H1278.39V1118H1277.26V1116.83H1277.12C1277.03 1116.97 1276.91 1117.14 1276.75 1117.35C1276.59 1117.56 1276.37 1117.75 1276.07 1117.92C1275.78 1118.08 1275.38 1118.16 1274.89 1118.16ZM1275.05 1117.11C1275.52 1117.11 1275.92 1116.98 1276.25 1116.74C1276.57 1116.49 1276.82 1116.15 1276.99 1115.71C1277.16 1115.27 1277.24 1114.76 1277.24 1114.18C1277.24 1113.61 1277.16 1113.11 1276.99 1112.69C1276.83 1112.25 1276.58 1111.92 1276.26 1111.68C1275.93 1111.44 1275.53 1111.32 1275.05 1111.32C1274.55 1111.32 1274.14 1111.45 1273.81 1111.7C1273.48 1111.95 1273.23 1112.3 1273.07 1112.73C1272.91 1113.16 1272.82 1113.64 1272.82 1114.18C1272.82 1114.73 1272.91 1115.22 1273.07 1115.66C1273.24 1116.1 1273.49 1116.46 1273.82 1116.72C1274.15 1116.98 1274.56 1117.11 1275.05 1117.11ZM1289.93 1106.42H1291.05V1119.09H1289.93V1106.42ZM1287.82 1111.57H1290.26V1112.54H1287.82V1111.57ZM1287.06 1106.7H1288.16V1118.43H1287.06V1106.7ZM1280.95 1107.95H1282.11V1115.26H1280.95V1107.95ZM1280.95 1114.79H1281.74C1282.41 1114.79 1283.1 1114.77 1283.83 1114.72C1284.56 1114.67 1285.33 1114.56 1286.15 1114.39L1286.29 1115.41C1285.44 1115.58 1284.63 1115.69 1283.89 1115.75C1283.14 1115.79 1282.43 1115.82 1281.74 1115.82H1280.95V1114.79ZM1298.35 1111.35H1300.73V1112.3H1298.35V1111.35ZM1302.86 1106.42H1303.98V1119.09H1302.86V1106.42ZM1300.34 1106.69H1301.44V1118.45H1300.34V1106.69ZM1296.05 1107.49C1296.6 1107.49 1297.08 1107.66 1297.48 1108.02C1297.89 1108.37 1298.21 1108.88 1298.43 1109.54C1298.66 1110.21 1298.77 1110.99 1298.77 1111.88C1298.77 1112.79 1298.66 1113.57 1298.43 1114.23C1298.21 1114.9 1297.89 1115.41 1297.48 1115.77C1297.08 1116.13 1296.6 1116.31 1296.05 1116.31C1295.52 1116.31 1295.05 1116.13 1294.64 1115.77C1294.24 1115.41 1293.92 1114.9 1293.7 1114.23C1293.48 1113.57 1293.36 1112.79 1293.36 1111.88C1293.36 1110.99 1293.48 1110.21 1293.7 1109.54C1293.92 1108.88 1294.24 1108.37 1294.64 1108.02C1295.05 1107.66 1295.52 1107.49 1296.05 1107.49ZM1296.05 1108.56C1295.73 1108.56 1295.44 1108.7 1295.2 1108.97C1294.96 1109.24 1294.77 1109.62 1294.64 1110.12C1294.51 1110.61 1294.44 1111.2 1294.44 1111.88C1294.44 1112.56 1294.51 1113.16 1294.64 1113.66C1294.77 1114.15 1294.96 1114.54 1295.2 1114.81C1295.44 1115.08 1295.73 1115.21 1296.05 1115.21C1296.39 1115.21 1296.68 1115.08 1296.92 1114.81C1297.17 1114.54 1297.36 1114.15 1297.49 1113.66C1297.62 1113.16 1297.69 1112.56 1297.69 1111.88C1297.69 1111.2 1297.62 1110.61 1297.49 1110.12C1297.36 1109.62 1297.17 1109.24 1296.92 1108.97C1296.68 1108.7 1296.39 1108.56 1296.05 1108.56ZM1319.67 1106.42H1320.79V1119.09H1319.67V1106.42ZM1317.66 1111.52H1320.09V1112.48H1317.66V1111.52ZM1316.91 1106.7H1318.02V1118.43H1316.91V1106.7ZM1310.15 1108.02H1316V1108.97H1310.15V1108.02ZM1310.03 1115.97L1309.89 1114.99C1310.31 1114.99 1310.78 1114.99 1311.3 1114.99C1311.83 1114.98 1312.38 1114.97 1312.95 1114.95C1313.53 1114.92 1314.1 1114.89 1314.66 1114.85C1315.23 1114.8 1315.76 1114.75 1316.24 1114.68L1316.31 1115.54C1315.66 1115.66 1314.94 1115.75 1314.17 1115.82C1313.4 1115.88 1312.66 1115.92 1311.94 1115.94C1311.23 1115.96 1310.59 1115.97 1310.03 1115.97ZM1311.23 1108.63H1312.29V1115.26H1311.23V1108.63ZM1313.86 1108.63H1314.93V1115.26H1313.86V1108.63ZM1332.12 1106.42H1333.28V1114.21H1332.12V1106.42ZM1323.68 1112.02H1324.71C1325.63 1112.02 1326.43 1112.01 1327.12 1111.99C1327.82 1111.98 1328.46 1111.93 1329.05 1111.87C1329.65 1111.8 1330.25 1111.71 1330.86 1111.59L1330.98 1112.54C1330.36 1112.66 1329.74 1112.75 1329.14 1112.82C1328.53 1112.89 1327.87 1112.93 1327.16 1112.96C1326.46 1112.98 1325.64 1112.99 1324.71 1112.99H1323.68V1112.02ZM1323.68 1107.42H1329.63V1108.37H1324.82V1112.55H1323.68V1107.42ZM1329.08 1114.23C1329.96 1114.23 1330.71 1114.33 1331.35 1114.53C1331.98 1114.71 1332.47 1114.99 1332.82 1115.35C1333.16 1115.71 1333.34 1116.14 1333.34 1116.66C1333.34 1117.16 1333.16 1117.59 1332.82 1117.96C1332.47 1118.32 1331.98 1118.6 1331.35 1118.78C1330.71 1118.98 1329.96 1119.08 1329.08 1119.08C1328.2 1119.08 1327.45 1118.98 1326.81 1118.78C1326.18 1118.6 1325.69 1118.32 1325.34 1117.96C1325.01 1117.59 1324.84 1117.16 1324.84 1116.66C1324.84 1116.14 1325.01 1115.71 1325.34 1115.35C1325.69 1114.99 1326.18 1114.71 1326.81 1114.53C1327.45 1114.33 1328.2 1114.23 1329.08 1114.23ZM1329.08 1115.16C1328.44 1115.16 1327.88 1115.22 1327.41 1115.34C1326.96 1115.45 1326.61 1115.62 1326.36 1115.84C1326.12 1116.07 1326 1116.34 1326 1116.66C1326 1116.96 1326.12 1117.23 1326.36 1117.45C1326.61 1117.68 1326.96 1117.85 1327.41 1117.97C1327.88 1118.09 1328.44 1118.15 1329.08 1118.15C1329.72 1118.15 1330.27 1118.09 1330.73 1117.97C1331.19 1117.85 1331.54 1117.68 1331.8 1117.45C1332.05 1117.23 1332.17 1116.96 1332.17 1116.66C1332.17 1116.34 1332.05 1116.07 1331.8 1115.84C1331.54 1115.62 1331.19 1115.45 1330.73 1115.34C1330.27 1115.22 1329.72 1115.16 1329.08 1115.16ZM1335.78 1113.09H1347.22V1114.02H1335.78V1113.09ZM1337.25 1117.86H1345.95V1118.81H1337.25V1117.86ZM1337.25 1115.14H1338.42V1118.14H1337.25V1115.14ZM1341.5 1106.86C1342.4 1106.86 1343.19 1106.96 1343.85 1107.16C1344.52 1107.36 1345.04 1107.65 1345.4 1108.03C1345.77 1108.41 1345.95 1108.85 1345.95 1109.38C1345.95 1109.9 1345.77 1110.35 1345.4 1110.73C1345.04 1111.12 1344.52 1111.41 1343.85 1111.62C1343.19 1111.81 1342.4 1111.91 1341.5 1111.91C1340.59 1111.91 1339.8 1111.81 1339.13 1111.62C1338.47 1111.41 1337.95 1111.12 1337.59 1110.73C1337.23 1110.35 1337.04 1109.9 1337.04 1109.38C1337.04 1108.85 1337.23 1108.41 1337.59 1108.03C1337.95 1107.65 1338.47 1107.36 1339.13 1107.16C1339.8 1106.96 1340.59 1106.86 1341.5 1106.86ZM1341.5 1107.79C1340.84 1107.79 1340.27 1107.86 1339.77 1107.99C1339.29 1108.11 1338.91 1108.29 1338.64 1108.54C1338.37 1108.77 1338.23 1109.05 1338.23 1109.38C1338.23 1109.7 1338.37 1109.99 1338.64 1110.23C1338.91 1110.46 1339.29 1110.65 1339.77 1110.78C1340.27 1110.9 1340.84 1110.96 1341.5 1110.96C1342.17 1110.96 1342.75 1110.9 1343.23 1110.78C1343.72 1110.65 1344.09 1110.46 1344.35 1110.23C1344.62 1109.99 1344.76 1109.7 1344.76 1109.38C1344.76 1109.05 1344.62 1108.77 1344.35 1108.54C1344.09 1108.29 1343.72 1108.11 1343.23 1107.99C1342.75 1107.86 1342.17 1107.79 1341.5 1107.79ZM1355.68 1107.08H1356.63V1108.37C1356.63 1109.18 1356.49 1109.94 1356.2 1110.64C1355.92 1111.34 1355.52 1111.95 1354.99 1112.47C1354.47 1112.98 1353.86 1113.38 1353.16 1113.65L1352.53 1112.72C1353.17 1112.49 1353.73 1112.15 1354.2 1111.71C1354.67 1111.28 1355.04 1110.77 1355.29 1110.2C1355.55 1109.62 1355.68 1109.01 1355.68 1108.37V1107.08ZM1355.89 1107.08H1356.83V1108.47C1356.83 1108.89 1356.9 1109.3 1357.05 1109.71C1357.2 1110.11 1357.41 1110.49 1357.68 1110.83C1357.96 1111.18 1358.29 1111.49 1358.66 1111.76C1359.04 1112.02 1359.45 1112.23 1359.91 1112.39L1359.29 1113.3C1358.62 1113.04 1358.03 1112.68 1357.51 1112.2C1357 1111.72 1356.6 1111.16 1356.31 1110.52C1356.03 1109.88 1355.89 1109.19 1355.89 1108.47V1107.08ZM1361.27 1106.42H1362.43V1114.11H1361.27V1106.42ZM1362.11 1109.7H1364.29V1110.68H1362.11V1109.7ZM1358.4 1114.44C1359.26 1114.44 1359.99 1114.54 1360.61 1114.72C1361.23 1114.9 1361.71 1115.16 1362.05 1115.51C1362.39 1115.85 1362.55 1116.27 1362.55 1116.75C1362.55 1117.24 1362.39 1117.65 1362.05 1118C1361.71 1118.35 1361.23 1118.61 1360.61 1118.78C1359.99 1118.97 1359.26 1119.06 1358.4 1119.06C1357.54 1119.06 1356.8 1118.97 1356.17 1118.78C1355.55 1118.61 1355.06 1118.35 1354.73 1118C1354.39 1117.65 1354.22 1117.24 1354.22 1116.75C1354.22 1116.27 1354.39 1115.85 1354.73 1115.51C1355.06 1115.16 1355.55 1114.9 1356.17 1114.72C1356.8 1114.54 1357.54 1114.44 1358.4 1114.44ZM1358.4 1115.37C1357.77 1115.37 1357.23 1115.42 1356.77 1115.54C1356.32 1115.65 1355.98 1115.81 1355.74 1116.01C1355.49 1116.22 1355.37 1116.46 1355.37 1116.75C1355.37 1117.05 1355.49 1117.3 1355.74 1117.51C1355.98 1117.72 1356.32 1117.87 1356.77 1117.99C1357.23 1118.09 1357.77 1118.14 1358.4 1118.14C1359.02 1118.14 1359.56 1118.09 1360.01 1117.99C1360.45 1117.87 1360.8 1117.72 1361.04 1117.51C1361.29 1117.3 1361.41 1117.05 1361.41 1116.75C1361.41 1116.46 1361.29 1116.22 1361.04 1116.01C1360.8 1115.81 1360.45 1115.65 1360.01 1115.54C1359.56 1115.42 1359.02 1115.37 1358.4 1115.37ZM1374.06 1106.42H1375.21V1119.09H1374.06V1106.42ZM1374.94 1111.63H1377.28V1112.61H1374.94V1111.63ZM1365.41 1108.45H1372.87V1109.4H1365.41V1108.45ZM1369.2 1110.44C1369.8 1110.44 1370.33 1110.57 1370.79 1110.82C1371.25 1111.07 1371.62 1111.42 1371.88 1111.85C1372.15 1112.28 1372.28 1112.78 1372.28 1113.35C1372.28 1113.92 1372.15 1114.43 1371.88 1114.86C1371.62 1115.3 1371.25 1115.65 1370.79 1115.9C1370.33 1116.14 1369.8 1116.26 1369.2 1116.26C1368.61 1116.26 1368.07 1116.14 1367.61 1115.9C1367.15 1115.65 1366.79 1115.3 1366.52 1114.86C1366.24 1114.43 1366.11 1113.92 1366.11 1113.35C1366.11 1112.78 1366.24 1112.28 1366.52 1111.85C1366.79 1111.42 1367.15 1111.07 1367.61 1110.82C1368.07 1110.57 1368.61 1110.44 1369.2 1110.44ZM1369.2 1111.41C1368.82 1111.41 1368.48 1111.49 1368.18 1111.66C1367.88 1111.83 1367.64 1112.05 1367.47 1112.34C1367.3 1112.63 1367.22 1112.97 1367.22 1113.35C1367.22 1113.73 1367.3 1114.08 1367.47 1114.37C1367.64 1114.66 1367.88 1114.89 1368.18 1115.06C1368.48 1115.22 1368.82 1115.3 1369.2 1115.3C1369.58 1115.3 1369.91 1115.22 1370.21 1115.06C1370.51 1114.89 1370.74 1114.66 1370.91 1114.37C1371.09 1114.08 1371.18 1113.73 1371.18 1113.35C1371.18 1112.97 1371.09 1112.63 1370.91 1112.34C1370.74 1112.05 1370.51 1111.83 1370.21 1111.66C1369.91 1111.49 1369.58 1111.41 1369.2 1111.41ZM1368.6 1106.58H1369.76V1108.87H1368.6V1106.58ZM1381.61 1107.95H1382.56V1108.69C1382.56 1109.43 1382.41 1110.11 1382.11 1110.75C1381.81 1111.37 1381.4 1111.91 1380.86 1112.37C1380.33 1112.83 1379.71 1113.17 1379 1113.41L1378.41 1112.5C1379.05 1112.29 1379.6 1112 1380.08 1111.63C1380.56 1111.25 1380.93 1110.8 1381.2 1110.3C1381.47 1109.8 1381.61 1109.26 1381.61 1108.69V1107.95ZM1381.83 1107.95H1382.78V1108.69C1382.78 1109.22 1382.91 1109.73 1383.16 1110.2C1383.42 1110.68 1383.79 1111.1 1384.25 1111.46C1384.73 1111.82 1385.27 1112.09 1385.89 1112.29L1385.33 1113.2C1384.63 1112.97 1384.02 1112.64 1383.5 1112.2C1382.97 1111.77 1382.56 1111.25 1382.26 1110.65C1381.97 1110.04 1381.83 1109.39 1381.83 1108.69V1107.95ZM1378.79 1107.6H1385.58V1108.56H1378.79V1107.6ZM1381.62 1112.89H1382.78V1115.83H1381.62V1112.89ZM1387.75 1111.67H1390.09V1112.67H1387.75V1111.67ZM1386.93 1106.42H1388.07V1119.09H1386.93V1106.42ZM1378.37 1116.45L1378.2 1115.48C1378.95 1115.48 1379.77 1115.48 1380.67 1115.47C1381.56 1115.45 1382.48 1115.41 1383.41 1115.37C1384.35 1115.31 1385.26 1115.22 1386.13 1115.1L1386.21 1115.96C1385.32 1116.11 1384.4 1116.23 1383.47 1116.31C1382.54 1116.37 1381.64 1116.41 1380.77 1116.43C1379.9 1116.44 1379.1 1116.45 1378.37 1116.45ZM1391.22 1113.67H1402.7V1114.64H1391.22V1113.67ZM1396.36 1114.26H1397.51V1119.09H1396.36V1114.26ZM1396.94 1106.93C1397.82 1106.93 1398.6 1107.04 1399.26 1107.28C1399.92 1107.5 1400.44 1107.82 1400.81 1108.24C1401.19 1108.65 1401.37 1109.14 1401.37 1109.71C1401.37 1110.27 1401.19 1110.76 1400.81 1111.18C1400.44 1111.6 1399.92 1111.92 1399.26 1112.15C1398.6 1112.37 1397.82 1112.48 1396.94 1112.48C1396.07 1112.48 1395.3 1112.37 1394.63 1112.15C1393.96 1111.92 1393.44 1111.6 1393.07 1111.18C1392.7 1110.76 1392.51 1110.27 1392.51 1109.71C1392.51 1109.14 1392.7 1108.65 1393.07 1108.24C1393.44 1107.82 1393.96 1107.5 1394.63 1107.28C1395.3 1107.04 1396.07 1106.93 1396.94 1106.93ZM1396.94 1107.86C1396.3 1107.86 1395.74 1107.94 1395.24 1108.09C1394.76 1108.24 1394.38 1108.45 1394.11 1108.73C1393.84 1109 1393.7 1109.32 1393.7 1109.7C1393.7 1110.08 1393.84 1110.41 1394.11 1110.69C1394.38 1110.96 1394.76 1111.17 1395.24 1111.32C1395.74 1111.47 1396.3 1111.55 1396.94 1111.55C1397.59 1111.55 1398.16 1111.47 1398.64 1111.32C1399.13 1111.17 1399.51 1110.96 1399.78 1110.69C1400.05 1110.41 1400.18 1110.08 1400.18 1109.7C1400.18 1109.32 1400.05 1109 1399.78 1108.73C1399.51 1108.45 1399.13 1108.24 1398.64 1108.09C1398.16 1107.94 1397.59 1107.86 1396.94 1107.86ZM1408.41 1118V1117.11L1411.77 1113.43C1412.16 1113 1412.49 1112.62 1412.74 1112.3C1413 1111.98 1413.19 1111.68 1413.31 1111.4C1413.44 1111.11 1413.5 1110.81 1413.5 1110.5C1413.5 1110.14 1413.41 1109.83 1413.24 1109.57C1413.07 1109.31 1412.84 1109.11 1412.54 1108.97C1412.25 1108.82 1411.92 1108.75 1411.55 1108.75C1411.16 1108.75 1410.82 1108.83 1410.53 1109C1410.24 1109.16 1410.01 1109.38 1409.85 1109.67C1409.7 1109.96 1409.62 1110.29 1409.62 1110.68H1408.45C1408.45 1110.09 1408.58 1109.56 1408.86 1109.11C1409.14 1108.66 1409.51 1108.31 1409.98 1108.06C1410.46 1107.8 1411 1107.68 1411.59 1107.68C1412.19 1107.68 1412.71 1107.8 1413.18 1108.06C1413.64 1108.31 1414 1108.65 1414.26 1109.08C1414.52 1109.5 1414.65 1109.98 1414.65 1110.5C1414.65 1110.88 1414.58 1111.24 1414.45 1111.6C1414.32 1111.96 1414.08 1112.35 1413.75 1112.79C1413.42 1113.22 1412.97 1113.75 1412.38 1114.38L1410.1 1116.83V1116.91H1414.83V1118H1408.41ZM1419.79 1118.16C1419.15 1118.16 1418.59 1118 1418.1 1117.68C1417.61 1117.35 1417.23 1116.89 1416.96 1116.3C1416.68 1115.71 1416.55 1115.01 1416.55 1114.2C1416.55 1113.4 1416.68 1112.7 1416.96 1112.11C1417.23 1111.52 1417.62 1111.07 1418.11 1110.75C1418.6 1110.42 1419.16 1110.26 1419.81 1110.26C1420.3 1110.26 1420.7 1110.35 1420.99 1110.51C1421.28 1110.68 1421.5 1110.86 1421.65 1111.07C1421.81 1111.28 1421.93 1111.44 1422.01 1111.58H1422.11V1107.82H1423.29V1118H1422.15V1116.83H1422.01C1421.93 1116.97 1421.81 1117.14 1421.65 1117.35C1421.49 1117.56 1421.26 1117.75 1420.97 1117.92C1420.67 1118.08 1420.28 1118.16 1419.79 1118.16ZM1419.95 1117.11C1420.42 1117.11 1420.81 1116.98 1421.14 1116.74C1421.46 1116.49 1421.71 1116.15 1421.88 1115.71C1422.05 1115.27 1422.13 1114.76 1422.13 1114.18C1422.13 1113.61 1422.05 1113.11 1421.89 1112.69C1421.72 1112.25 1421.47 1111.92 1421.15 1111.68C1420.82 1111.44 1420.42 1111.32 1419.95 1111.32C1419.45 1111.32 1419.04 1111.45 1418.7 1111.7C1418.38 1111.95 1418.13 1112.3 1417.96 1112.73C1417.8 1113.16 1417.72 1113.64 1417.72 1114.18C1417.72 1114.73 1417.8 1115.22 1417.97 1115.66C1418.14 1116.1 1418.39 1116.46 1418.71 1116.72C1419.05 1116.98 1419.46 1117.11 1419.95 1117.11ZM1425.6 1120.86V1110.36H1426.73V1111.58H1426.87C1426.96 1111.44 1427.08 1111.28 1427.23 1111.07C1427.39 1110.86 1427.61 1110.68 1427.9 1110.51C1428.19 1110.35 1428.58 1110.26 1429.08 1110.26C1429.72 1110.26 1430.29 1110.42 1430.78 1110.75C1431.27 1111.07 1431.65 1111.52 1431.93 1112.11C1432.2 1112.7 1432.34 1113.4 1432.34 1114.2C1432.34 1115.01 1432.2 1115.71 1431.93 1116.3C1431.65 1116.89 1431.27 1117.35 1430.78 1117.68C1430.3 1118 1429.74 1118.16 1429.1 1118.16C1428.61 1118.16 1428.22 1118.08 1427.92 1117.92C1427.63 1117.75 1427.4 1117.56 1427.24 1117.35C1427.08 1117.14 1426.96 1116.97 1426.87 1116.83H1426.77V1120.86H1425.6ZM1426.75 1114.18C1426.75 1114.76 1426.84 1115.27 1427.01 1115.71C1427.18 1116.15 1427.42 1116.49 1427.75 1116.74C1428.07 1116.98 1428.47 1117.11 1428.94 1117.11C1429.43 1117.11 1429.84 1116.98 1430.17 1116.72C1430.5 1116.46 1430.75 1116.1 1430.91 1115.66C1431.08 1115.22 1431.17 1114.73 1431.17 1114.18C1431.17 1113.64 1431.08 1113.16 1430.92 1112.73C1430.76 1112.3 1430.51 1111.95 1430.18 1111.7C1429.85 1111.45 1429.44 1111.32 1428.94 1111.32C1428.46 1111.32 1428.06 1111.44 1427.74 1111.68C1427.41 1111.92 1427.17 1112.25 1427 1112.69C1426.84 1113.11 1426.75 1113.61 1426.75 1114.18ZM1437.86 1107.35C1438.52 1107.35 1439.1 1107.47 1439.61 1107.72C1440.12 1107.97 1440.52 1108.31 1440.81 1108.76C1441.1 1109.21 1441.25 1109.73 1441.25 1110.33C1441.25 1110.92 1441.1 1111.44 1440.81 1111.9C1440.52 1112.34 1440.12 1112.69 1439.61 1112.95C1439.1 1113.19 1438.52 1113.31 1437.86 1113.31C1437.21 1113.31 1436.62 1113.19 1436.11 1112.95C1435.6 1112.69 1435.19 1112.34 1434.89 1111.9C1434.6 1111.44 1434.46 1110.92 1434.46 1110.33C1434.46 1109.73 1434.6 1109.21 1434.89 1108.76C1435.19 1108.31 1435.6 1107.97 1436.11 1107.72C1436.62 1107.47 1437.21 1107.35 1437.86 1107.35ZM1437.86 1108.35C1437.43 1108.35 1437.04 1108.44 1436.7 1108.61C1436.36 1108.76 1436.09 1108.99 1435.9 1109.29C1435.7 1109.59 1435.6 1109.94 1435.6 1110.33C1435.6 1110.72 1435.7 1111.07 1435.9 1111.36C1436.09 1111.66 1436.36 1111.9 1436.7 1112.06C1437.04 1112.22 1437.43 1112.3 1437.86 1112.3C1438.3 1112.3 1438.68 1112.22 1439.02 1112.06C1439.36 1111.9 1439.62 1111.66 1439.82 1111.36C1440.01 1111.07 1440.11 1110.72 1440.11 1110.33C1440.11 1109.94 1440.01 1109.59 1439.82 1109.29C1439.62 1108.99 1439.36 1108.76 1439.02 1108.61C1438.68 1108.44 1438.3 1108.35 1437.86 1108.35ZM1442.91 1106.42H1444.07V1119.11H1442.91V1106.42ZM1433.98 1116.33L1433.83 1115.35C1434.6 1115.35 1435.45 1115.35 1436.37 1115.34C1437.3 1115.32 1438.25 1115.28 1439.23 1115.23C1440.22 1115.16 1441.17 1115.06 1442.09 1114.92L1442.18 1115.77C1441.23 1115.95 1440.27 1116.08 1439.29 1116.17C1438.32 1116.24 1437.38 1116.29 1436.47 1116.31C1435.57 1116.32 1434.74 1116.33 1433.98 1116.33ZM1451.11 1118V1107.82H1454.55C1455.35 1107.82 1456 1107.96 1456.51 1108.25C1457.02 1108.54 1457.39 1108.92 1457.64 1109.41C1457.88 1109.9 1458.01 1110.44 1458.01 1111.04C1458.01 1111.64 1457.88 1112.18 1457.64 1112.68C1457.4 1113.17 1457.02 1113.56 1456.52 1113.85C1456.01 1114.14 1455.36 1114.28 1454.57 1114.28H1452.1V1113.19H1454.53C1455.07 1113.19 1455.51 1113.09 1455.84 1112.9C1456.18 1112.72 1456.42 1112.46 1456.56 1112.14C1456.72 1111.81 1456.79 1111.45 1456.79 1111.04C1456.79 1110.63 1456.72 1110.27 1456.56 1109.95C1456.42 1109.62 1456.17 1109.37 1455.84 1109.19C1455.5 1109 1455.06 1108.91 1454.51 1108.91H1452.34V1118H1451.11ZM1462.08 1118.18C1461.6 1118.18 1461.16 1118.09 1460.76 1117.91C1460.37 1117.72 1460.06 1117.45 1459.82 1117.11C1459.59 1116.75 1459.48 1116.33 1459.48 1115.83C1459.48 1115.39 1459.56 1115.04 1459.73 1114.77C1459.91 1114.49 1460.14 1114.28 1460.43 1114.12C1460.71 1113.97 1461.03 1113.85 1461.38 1113.77C1461.73 1113.69 1462.08 1113.63 1462.44 1113.59C1462.9 1113.53 1463.28 1113.48 1463.57 1113.45C1463.86 1113.42 1464.07 1113.36 1464.2 1113.29C1464.34 1113.21 1464.41 1113.08 1464.41 1112.89V1112.85C1464.41 1112.36 1464.27 1111.98 1464 1111.71C1463.74 1111.43 1463.34 1111.3 1462.8 1111.3C1462.24 1111.3 1461.8 1111.42 1461.48 1111.67C1461.16 1111.91 1460.94 1112.17 1460.81 1112.45L1459.69 1112.05C1459.89 1111.59 1460.16 1111.23 1460.49 1110.97C1460.82 1110.71 1461.19 1110.53 1461.58 1110.42C1461.98 1110.32 1462.37 1110.26 1462.76 1110.26C1463 1110.26 1463.28 1110.29 1463.6 1110.35C1463.92 1110.41 1464.23 1110.53 1464.53 1110.71C1464.83 1110.89 1465.08 1111.16 1465.28 1111.52C1465.48 1111.88 1465.58 1112.36 1465.58 1112.97V1118H1464.41V1116.97H1464.35C1464.27 1117.13 1464.14 1117.31 1463.95 1117.5C1463.76 1117.69 1463.52 1117.85 1463.21 1117.98C1462.9 1118.11 1462.52 1118.18 1462.08 1118.18ZM1462.26 1117.12C1462.72 1117.12 1463.11 1117.03 1463.43 1116.85C1463.75 1116.67 1464 1116.43 1464.16 1116.15C1464.32 1115.86 1464.41 1115.55 1464.41 1115.24V1114.16C1464.36 1114.22 1464.25 1114.28 1464.08 1114.33C1463.91 1114.37 1463.72 1114.41 1463.5 1114.45C1463.29 1114.48 1463.08 1114.51 1462.87 1114.54C1462.67 1114.56 1462.51 1114.58 1462.38 1114.6C1462.07 1114.64 1461.79 1114.7 1461.52 1114.79C1461.26 1114.88 1461.05 1115.01 1460.89 1115.19C1460.73 1115.36 1460.65 1115.59 1460.65 1115.89C1460.65 1116.3 1460.8 1116.61 1461.1 1116.82C1461.41 1117.02 1461.79 1117.12 1462.26 1117.12ZM1470.61 1118.16C1469.97 1118.16 1469.41 1118 1468.92 1117.68C1468.43 1117.35 1468.05 1116.89 1467.78 1116.3C1467.5 1115.71 1467.36 1115.01 1467.36 1114.2C1467.36 1113.4 1467.5 1112.7 1467.78 1112.11C1468.05 1111.52 1468.43 1111.07 1468.93 1110.75C1469.42 1110.42 1469.98 1110.26 1470.63 1110.26C1471.12 1110.26 1471.52 1110.35 1471.8 1110.51C1472.1 1110.68 1472.32 1110.86 1472.47 1111.07C1472.63 1111.28 1472.75 1111.44 1472.83 1111.58H1472.93V1107.82H1474.11V1118H1472.97V1116.83H1472.83C1472.75 1116.97 1472.62 1117.14 1472.47 1117.35C1472.31 1117.56 1472.08 1117.75 1471.78 1117.92C1471.49 1118.08 1471.1 1118.16 1470.61 1118.16ZM1470.76 1117.11C1471.24 1117.11 1471.63 1116.98 1471.96 1116.74C1472.28 1116.49 1472.53 1116.15 1472.7 1115.71C1472.87 1115.27 1472.95 1114.76 1472.95 1114.18C1472.95 1113.61 1472.87 1113.11 1472.7 1112.69C1472.54 1112.25 1472.29 1111.92 1471.97 1111.68C1471.64 1111.44 1471.24 1111.32 1470.76 1111.32C1470.27 1111.32 1469.85 1111.45 1469.52 1111.7C1469.19 1111.95 1468.95 1112.3 1468.78 1112.73C1468.62 1113.16 1468.54 1113.64 1468.54 1114.18C1468.54 1114.73 1468.62 1115.22 1468.79 1115.66C1468.96 1116.1 1469.2 1116.46 1469.53 1116.72C1469.86 1116.98 1470.27 1117.11 1470.76 1117.11ZM1479.3 1118.16C1478.66 1118.16 1478.1 1118 1477.62 1117.68C1477.13 1117.35 1476.75 1116.89 1476.47 1116.3C1476.2 1115.71 1476.06 1115.01 1476.06 1114.2C1476.06 1113.4 1476.2 1112.7 1476.47 1112.11C1476.75 1111.52 1477.13 1111.07 1477.62 1110.75C1478.11 1110.42 1478.68 1110.26 1479.32 1110.26C1479.82 1110.26 1480.21 1110.35 1480.5 1110.51C1480.79 1110.68 1481.01 1110.86 1481.17 1111.07C1481.32 1111.28 1481.44 1111.44 1481.53 1111.58H1481.63V1107.82H1482.8V1118H1481.67V1116.83H1481.53C1481.44 1116.97 1481.32 1117.14 1481.16 1117.35C1481 1117.56 1480.77 1117.75 1480.48 1117.92C1480.18 1118.08 1479.79 1118.16 1479.3 1118.16ZM1479.46 1117.11C1479.93 1117.11 1480.33 1116.98 1480.65 1116.74C1480.98 1116.49 1481.23 1116.15 1481.39 1115.71C1481.56 1115.27 1481.65 1114.76 1481.65 1114.18C1481.65 1113.61 1481.56 1113.11 1481.4 1112.69C1481.23 1112.25 1480.99 1111.92 1480.66 1111.68C1480.34 1111.44 1479.94 1111.32 1479.46 1111.32C1478.96 1111.32 1478.55 1111.45 1478.22 1111.7C1477.89 1111.95 1477.64 1112.3 1477.48 1112.73C1477.31 1113.16 1477.23 1113.64 1477.23 1114.18C1477.23 1114.73 1477.32 1115.22 1477.48 1115.66C1477.65 1116.1 1477.9 1116.46 1478.23 1116.72C1478.56 1116.98 1478.97 1117.11 1479.46 1117.11ZM1485.11 1118V1110.36H1486.29V1118H1485.11ZM1485.71 1109.09C1485.48 1109.09 1485.28 1109.01 1485.12 1108.86C1484.96 1108.7 1484.87 1108.51 1484.87 1108.3C1484.87 1108.08 1484.96 1107.89 1485.12 1107.73C1485.28 1107.58 1485.48 1107.5 1485.71 1107.5C1485.94 1107.5 1486.13 1107.58 1486.3 1107.73C1486.46 1107.89 1486.54 1108.08 1486.54 1108.3C1486.54 1108.51 1486.46 1108.7 1486.3 1108.86C1486.13 1109.01 1485.94 1109.09 1485.71 1109.09ZM1489.61 1113.41V1118H1488.44V1110.36H1489.57V1111.56H1489.67C1489.85 1111.17 1490.12 1110.86 1490.48 1110.62C1490.85 1110.38 1491.32 1110.26 1491.9 1110.26C1492.41 1110.26 1492.86 1110.37 1493.25 1110.58C1493.64 1110.79 1493.94 1111.11 1494.16 1111.54C1494.37 1111.96 1494.48 1112.5 1494.48 1113.15V1118H1493.31V1113.23C1493.31 1112.63 1493.15 1112.16 1492.84 1111.83C1492.53 1111.49 1492.1 1111.32 1491.56 1111.32C1491.18 1111.32 1490.85 1111.4 1490.55 1111.56C1490.26 1111.72 1490.03 1111.96 1489.86 1112.27C1489.69 1112.58 1489.61 1112.96 1489.61 1113.41ZM1499.71 1121.02C1499.14 1121.02 1498.65 1120.95 1498.25 1120.8C1497.84 1120.66 1497.5 1120.47 1497.23 1120.24C1496.96 1120.01 1496.74 1119.76 1496.58 1119.49L1497.52 1118.84C1497.63 1118.97 1497.76 1119.13 1497.92 1119.31C1498.08 1119.49 1498.31 1119.65 1498.59 1119.78C1498.87 1119.92 1499.25 1119.99 1499.71 1119.99C1500.32 1119.99 1500.83 1119.84 1501.23 1119.54C1501.63 1119.24 1501.83 1118.78 1501.83 1118.14V1116.59H1501.74C1501.65 1116.73 1501.53 1116.9 1501.37 1117.11C1501.21 1117.31 1500.99 1117.49 1500.69 1117.65C1500.4 1117.8 1500.01 1117.88 1499.51 1117.88C1498.89 1117.88 1498.34 1117.73 1497.85 1117.44C1497.36 1117.15 1496.97 1116.73 1496.69 1116.17C1496.41 1115.61 1496.27 1114.94 1496.27 1114.14C1496.27 1113.36 1496.4 1112.68 1496.68 1112.1C1496.95 1111.52 1497.34 1111.06 1497.83 1110.75C1498.32 1110.42 1498.89 1110.26 1499.53 1110.26C1500.03 1110.26 1500.42 1110.35 1500.71 1110.51C1501.01 1110.68 1501.23 1110.86 1501.39 1111.07C1501.55 1111.28 1501.67 1111.44 1501.76 1111.58H1501.87V1110.36H1503.01V1118.22C1503.01 1118.88 1502.86 1119.41 1502.56 1119.82C1502.27 1120.23 1501.87 1120.54 1501.37 1120.73C1500.87 1120.92 1500.32 1121.02 1499.71 1121.02ZM1499.67 1116.83C1500.14 1116.83 1500.54 1116.72 1500.86 1116.5C1501.19 1116.29 1501.43 1115.98 1501.6 1115.57C1501.77 1115.17 1501.85 1114.69 1501.85 1114.12C1501.85 1113.57 1501.77 1113.09 1501.61 1112.67C1501.44 1112.24 1501.2 1111.91 1500.87 1111.68C1500.55 1111.44 1500.14 1111.32 1499.67 1111.32C1499.17 1111.32 1498.76 1111.44 1498.42 1111.7C1498.1 1111.95 1497.85 1112.29 1497.68 1112.71C1497.52 1113.13 1497.44 1113.61 1497.44 1114.12C1497.44 1114.65 1497.52 1115.12 1497.69 1115.53C1497.86 1115.93 1498.11 1116.25 1498.43 1116.48C1498.77 1116.71 1499.18 1116.83 1499.67 1116.83ZM1513.98 1106.42H1515.14V1119.11H1513.98V1106.42ZM1508.46 1107.4C1509.09 1107.4 1509.64 1107.58 1510.12 1107.95C1510.6 1108.3 1510.98 1108.81 1511.25 1109.47C1511.53 1110.14 1511.67 1110.92 1511.67 1111.81C1511.67 1112.71 1511.53 1113.49 1511.25 1114.15C1510.98 1114.81 1510.6 1115.33 1510.12 1115.69C1509.64 1116.05 1509.09 1116.24 1508.46 1116.24C1507.84 1116.24 1507.28 1116.05 1506.8 1115.69C1506.31 1115.33 1505.93 1114.81 1505.65 1114.15C1505.38 1113.49 1505.24 1112.71 1505.24 1111.81C1505.24 1110.92 1505.38 1110.14 1505.65 1109.47C1505.93 1108.81 1506.31 1108.3 1506.8 1107.95C1507.28 1107.58 1507.84 1107.4 1508.46 1107.4ZM1508.46 1108.44C1508.04 1108.44 1507.68 1108.58 1507.36 1108.86C1507.05 1109.13 1506.81 1109.52 1506.63 1110.03C1506.45 1110.54 1506.36 1111.13 1506.36 1111.81C1506.36 1112.49 1506.45 1113.09 1506.63 1113.6C1506.81 1114.11 1507.05 1114.5 1507.36 1114.78C1507.68 1115.06 1508.04 1115.2 1508.46 1115.2C1508.87 1115.2 1509.23 1115.06 1509.54 1114.78C1509.86 1114.5 1510.11 1114.11 1510.28 1113.6C1510.46 1113.09 1510.55 1112.49 1510.55 1111.81C1510.55 1111.13 1510.46 1110.54 1510.28 1110.03C1510.11 1109.52 1509.86 1109.13 1509.54 1108.86C1509.23 1108.58 1508.87 1108.44 1508.46 1108.44ZM1521.6 1116.54H1533.08V1117.52H1521.6V1116.54ZM1526.72 1113.27H1527.87V1116.98H1526.72V1113.27ZM1522.61 1107.64H1532V1108.59H1522.61V1107.64ZM1522.63 1112.74H1531.97V1113.66H1522.63V1112.74ZM1524.57 1108.4H1525.73V1112.89H1524.57V1108.4ZM1528.88 1108.4H1530.03V1112.89H1528.88V1108.4ZM1543.14 1106.42H1544.31V1114.05H1543.14V1106.42ZM1543.98 1109.78H1546.17V1110.76H1543.98V1109.78ZM1536.35 1114.77H1544.31V1118.92H1536.35V1114.77ZM1543.16 1115.7H1537.49V1117.97H1543.16V1115.7ZM1534.51 1107.77H1541.98V1108.7H1534.51V1107.77ZM1538.24 1109.33C1538.85 1109.33 1539.38 1109.43 1539.83 1109.61C1540.28 1109.8 1540.64 1110.07 1540.89 1110.41C1541.14 1110.75 1541.27 1111.14 1541.27 1111.59C1541.27 1112.05 1541.14 1112.44 1540.89 1112.78C1540.64 1113.11 1540.28 1113.38 1539.83 1113.56C1539.38 1113.75 1538.85 1113.84 1538.24 1113.84C1537.64 1113.84 1537.1 1113.75 1536.65 1113.56C1536.2 1113.38 1535.84 1113.11 1535.58 1112.78C1535.33 1112.44 1535.21 1112.05 1535.21 1111.59C1535.21 1111.14 1535.33 1110.75 1535.58 1110.41C1535.84 1110.07 1536.2 1109.8 1536.65 1109.61C1537.1 1109.43 1537.64 1109.33 1538.24 1109.33ZM1538.24 1110.23C1537.66 1110.23 1537.2 1110.35 1536.84 1110.59C1536.5 1110.84 1536.33 1111.17 1536.33 1111.59C1536.33 1112.01 1536.5 1112.34 1536.84 1112.6C1537.2 1112.84 1537.66 1112.96 1538.24 1112.96C1538.81 1112.96 1539.27 1112.84 1539.63 1112.6C1539.98 1112.34 1540.16 1112.01 1540.16 1111.59C1540.16 1111.17 1539.98 1110.84 1539.63 1110.59C1539.28 1110.35 1538.82 1110.23 1538.24 1110.23ZM1537.67 1106.32H1538.83V1108.24H1537.67V1106.32ZM1550.97 1110.72H1552.13V1112.81H1550.97V1110.72ZM1556.57 1106.44H1557.73V1113.72H1556.57V1106.44ZM1547.57 1113.42L1547.4 1112.47C1548.17 1112.47 1549.02 1112.47 1549.93 1112.46C1550.86 1112.44 1551.8 1112.4 1552.76 1112.34C1553.73 1112.28 1554.66 1112.19 1555.55 1112.06L1555.62 1112.89C1554.7 1113.05 1553.77 1113.17 1552.82 1113.24C1551.86 1113.31 1550.94 1113.36 1550.04 1113.38C1549.15 1113.4 1548.32 1113.41 1547.57 1113.42ZM1548.53 1110.13H1554.61V1111.06H1548.53V1110.13ZM1548.53 1107.05H1554.5V1108H1549.69V1110.48H1548.53V1107.05ZM1549.44 1114.29H1550.59V1115.62H1556.6V1114.29H1557.73V1118.92H1549.44V1114.29ZM1550.59 1116.52V1117.97H1556.6V1116.52H1550.59ZM1569.45 1106.42H1570.6V1119.09H1569.45V1106.42ZM1561.03 1107.67H1562.18V1115.51H1561.03V1107.67ZM1561.03 1114.82H1562.07C1563.04 1114.82 1564.02 1114.78 1565.02 1114.7C1566.03 1114.6 1567.07 1114.45 1568.13 1114.23L1568.29 1115.21C1567.18 1115.45 1566.12 1115.61 1565.11 1115.7C1564.09 1115.79 1563.08 1115.83 1562.07 1115.83H1561.03V1114.82ZM1581.68 1106.42H1582.84V1119.11H1581.68V1106.42ZM1582.58 1111.42H1584.92V1112.39H1582.58V1111.42ZM1573.66 1114.96H1574.65C1575.43 1114.96 1576.14 1114.95 1576.78 1114.93C1577.44 1114.91 1578.06 1114.86 1578.66 1114.79C1579.26 1114.73 1579.88 1114.64 1580.51 1114.53L1580.65 1115.52C1579.99 1115.63 1579.36 1115.72 1578.74 1115.79C1578.14 1115.85 1577.5 1115.9 1576.84 1115.91C1576.18 1115.93 1575.45 1115.94 1574.65 1115.94H1573.66V1114.96ZM1573.66 1107.65H1579.53V1108.61H1574.81V1115.41H1573.66V1107.65ZM1587.22 1118.08C1586.98 1118.08 1586.77 1117.99 1586.59 1117.82C1586.41 1117.64 1586.33 1117.43 1586.33 1117.18C1586.33 1116.94 1586.41 1116.73 1586.59 1116.55C1586.77 1116.38 1586.98 1116.29 1587.22 1116.29C1587.47 1116.29 1587.68 1116.38 1587.85 1116.55C1588.03 1116.73 1588.12 1116.94 1588.12 1117.18C1588.12 1117.35 1588.08 1117.5 1587.99 1117.63C1587.91 1117.77 1587.81 1117.88 1587.67 1117.96C1587.54 1118.04 1587.39 1118.08 1587.22 1118.08Z" fill="black"/>
<defs>
<clipPath id="clip0_1015_199402">
<rect x="1661" y="317" width="240" height="240" fill="white"/>
</clipPath>
</defs>
</svg>
