<svg width="2274" height="1022" viewBox="0 0 2274 1022" fill="none" xmlns="http://www.w3.org/2000/svg">
<rect width="2274" height="1022" fill="#F7F7F7"/>
<path d="M401.9 411C346.7 411 302 455.8 302 511C302 566.2 346.7 611 401.9 611C457.2 611 502 566.2 502 511C502 455.8 457.2 411 401.9 411ZM402 591C357.8 591 322 555.2 322 511C322 466.8 357.8 431 402 431C446.2 431 482 466.8 482 511C482 555.2 446.2 591 402 591ZM437 501C445.3 501 452 494.3 452 486C452 477.7 445.3 471 437 471C428.7 471 422 477.7 422 486C422 494.3 428.7 501 437 501ZM367 501C375.3 501 382 494.3 382 486C382 477.7 375.3 471 367 471C358.7 471 352 477.7 352 486C352 494.3 358.7 501 367 501ZM402 566C425.3 566 445.1 551.4 453.1 531H350.9C358.9 551.4 378.7 566 402 566Z" fill="#212121"/>
<path d="M455.5 715.239C454.216 715.239 453.122 714.889 452.219 714.19C451.315 713.486 450.625 712.466 450.148 711.131C449.67 709.79 449.432 708.17 449.432 706.273C449.432 704.386 449.67 702.776 450.148 701.44C450.631 700.099 451.324 699.077 452.227 698.372C453.136 697.662 454.227 697.307 455.5 697.307C456.773 697.307 457.861 697.662 458.764 698.372C459.673 699.077 460.366 700.099 460.844 701.44C461.327 702.776 461.568 704.386 461.568 706.273C461.568 708.17 461.33 709.79 460.852 711.131C460.375 712.466 459.685 713.486 458.781 714.19C457.878 714.889 456.784 715.239 455.5 715.239ZM455.5 713.364C456.773 713.364 457.761 712.75 458.466 711.523C459.17 710.295 459.523 708.545 459.523 706.273C459.523 704.761 459.361 703.474 459.037 702.412C458.719 701.349 458.259 700.54 457.656 699.983C457.06 699.426 456.341 699.148 455.5 699.148C454.239 699.148 453.253 699.77 452.543 701.014C451.832 702.253 451.477 704.006 451.477 706.273C451.477 707.784 451.636 709.068 451.955 710.125C452.273 711.182 452.73 711.986 453.327 712.537C453.929 713.088 454.653 713.364 455.5 713.364Z" fill="#0FBA7F"/>
<path d="M456 621V681" stroke="#0FBA7F" stroke-width="3"/>
<path d="M1921.81 714V712.466L1927.57 706.159C1928.24 705.42 1928.8 704.778 1929.24 704.233C1929.68 703.682 1930 703.165 1930.21 702.682C1930.43 702.193 1930.53 701.682 1930.53 701.148C1930.53 700.534 1930.39 700.003 1930.09 699.554C1929.8 699.105 1929.4 698.759 1928.9 698.514C1928.39 698.27 1927.82 698.148 1927.19 698.148C1926.52 698.148 1925.94 698.287 1925.44 698.565C1924.94 698.838 1924.56 699.222 1924.29 699.716C1924.02 700.21 1923.89 700.79 1923.89 701.455H1921.88C1921.88 700.432 1922.11 699.534 1922.58 698.761C1923.05 697.989 1923.7 697.386 1924.51 696.955C1925.33 696.523 1926.24 696.307 1927.26 696.307C1928.28 696.307 1929.19 696.523 1929.98 696.955C1930.77 697.386 1931.39 697.969 1931.84 698.702C1932.29 699.435 1932.51 700.25 1932.51 701.148C1932.51 701.79 1932.39 702.418 1932.16 703.031C1931.93 703.639 1931.54 704.318 1930.97 705.068C1930.41 705.812 1929.62 706.722 1928.62 707.795L1924.7 711.989V712.125H1932.82V714H1921.81Z" fill="#0FBA7F"/>
<path d="M1226.94 696.545V714H1224.83V698.761H1224.73L1220.47 701.591V699.443L1224.83 696.545H1226.94Z" fill="#0FBA7F"/>
<path d="M1928 620V680" stroke="#0FBA7F" stroke-width="3"/>
<path d="M1227 620V680" stroke="#0FBA7F" stroke-width="3"/>
<g clip-path="url(#clip0_1015_199413)">
<path d="M1920 440V580H1780V440H1920ZM1920 420H1780C1769 420 1760 429 1760 440V580C1760 591 1769 600 1780 600H1920C1931 600 1940 591 1940 580V440C1940 429 1931 420 1920 420Z" fill="#121212"/>
</g>
<path d="M1920 565H1940V580C1940 591.046 1931.05 600 1920 600V600V565Z" fill="#0FBA7F"/>
<rect x="1920" y="580" width="20" height="15" transform="rotate(90 1920 580)" fill="#0FBA7F"/>
<path d="M471.929 567.695C461 581.5 446.5 590 433 595.234" stroke="#0FBA7F" stroke-width="20"/>
<g clip-path="url(#clip1_1015_199413)">
<path d="M1222 425L1220.4 425.3L1167 446L1107 425L1050.6 444C1048.5 444.7 1047 446.5 1047 448.8V600C1047 602.8 1049.2 605 1052 605L1053.6 604.7L1107 584L1167 605L1223.4 586C1225.5 585.3 1227 583.5 1227 581.2V430C1227 427.2 1224.8 425 1222 425ZM1167 585L1107 563.9V445L1167 466.1V585Z" fill="#121212"/>
</g>
<path d="M1213 589.5L1223.61 585.901C1225.64 585.212 1227 583.308 1227 581.166V571L1214.5 575L1213 589.5Z" fill="#0FBA7F"/>
<defs>
<clipPath id="clip0_1015_199413">
<rect width="240" height="240" fill="white" transform="translate(1730 390)"/>
</clipPath>
<clipPath id="clip1_1015_199413">
<rect width="240" height="240" fill="white" transform="translate(1017 395)"/>
</clipPath>
</defs>
</svg>
