<svg width="2274" height="1022" viewBox="0 0 2274 1022" fill="none" xmlns="http://www.w3.org/2000/svg">
<rect width="1022" height="1022" fill="#F7F7F7"/>
<path d="M499 507L509.5 496.5L457.5 444.5L629 444.5V429.5L457.5 429.5L509.5 377.5L499 367L429 437L499 507Z" fill="#FAFAFA"/>
<path d="M764.807 446V444.466L770.568 438.159C771.244 437.42 771.801 436.778 772.239 436.233C772.676 435.682 773 435.165 773.21 434.682C773.426 434.193 773.534 433.682 773.534 433.148C773.534 432.534 773.386 432.003 773.091 431.554C772.801 431.105 772.403 430.759 771.898 430.514C771.392 430.27 770.824 430.148 770.193 430.148C769.523 430.148 768.938 430.287 768.438 430.565C767.943 430.838 767.56 431.222 767.287 431.716C767.02 432.21 766.886 432.79 766.886 433.455H764.875C764.875 432.432 765.111 431.534 765.582 430.761C766.054 429.989 766.696 429.386 767.509 428.955C768.327 428.523 769.244 428.307 770.261 428.307C771.284 428.307 772.19 428.523 772.98 428.955C773.77 429.386 774.389 429.969 774.838 430.702C775.287 431.435 775.511 432.25 775.511 433.148C775.511 433.79 775.395 434.418 775.162 435.031C774.935 435.639 774.537 436.318 773.969 437.068C773.406 437.812 772.625 438.722 771.625 439.795L767.705 443.989V444.125H775.818V446H764.807ZM778.554 442.42V440.682L786.224 428.545H787.486V431.239H786.634L780.838 440.409V440.545H791.168V442.42H778.554ZM786.77 446V441.892V441.082V428.545H788.781V446H786.77Z" fill="#0FBA7F"/>
<path d="M515.807 697V695.466L521.568 689.159C522.244 688.42 522.801 687.778 523.239 687.233C523.676 686.682 524 686.165 524.21 685.682C524.426 685.193 524.534 684.682 524.534 684.148C524.534 683.534 524.386 683.003 524.091 682.554C523.801 682.105 523.403 681.759 522.898 681.514C522.392 681.27 521.824 681.148 521.193 681.148C520.523 681.148 519.938 681.287 519.438 681.565C518.943 681.838 518.56 682.222 518.287 682.716C518.02 683.21 517.886 683.79 517.886 684.455H515.875C515.875 683.432 516.111 682.534 516.582 681.761C517.054 680.989 517.696 680.386 518.509 679.955C519.327 679.523 520.244 679.307 521.261 679.307C522.284 679.307 523.19 679.523 523.98 679.955C524.77 680.386 525.389 680.969 525.838 681.702C526.287 682.435 526.511 683.25 526.511 684.148C526.511 684.79 526.395 685.418 526.162 686.031C525.935 686.639 525.537 687.318 524.969 688.068C524.406 688.812 523.625 689.722 522.625 690.795L518.705 694.989V695.125H526.818V697H515.807ZM529.554 693.42V691.682L537.224 679.545H538.486V682.239H537.634L531.838 691.409V691.545H542.168V693.42H529.554ZM537.77 697V692.892V692.082V679.545H539.781V697H537.77Z" fill="#0FBA7F"/>
<g clip-path="url(#clip0_1015_199412)">
<rect x="408.999" y="317" width="240" height="20" fill="#0FBA7F" fill-opacity="0.3"/>
<rect x="408.999" y="537" width="240" height="20" fill="#0FBA7F" fill-opacity="0.3"/>
<rect x="490.651" y="498.654" width="14.8514" height="11.2085" transform="rotate(-45 490.651 498.654)" fill="#0FBA7F" fill-opacity="0.3"/>
<rect x="498.926" y="367" width="14.8514" height="11.2085" transform="rotate(45 498.926 367)" fill="#0FBA7F" fill-opacity="0.3"/>
<rect x="428.999" y="337" width="200" height="20" transform="rotate(90 428.999 337)" fill="#0FBA7F" fill-opacity="0.3"/>
<rect x="648.999" y="337" width="200" height="20" transform="rotate(90 648.999 337)" fill="#0FBA7F" fill-opacity="0.3"/>
<path d="M518.284 489L490 517.284" stroke="#0FBA7F" stroke-width="3"/>
<path d="M519.284 385.284L491 357" stroke="#0FBA7F" stroke-width="3"/>
<path d="M609.5 429.5C609.5 410.5 628 410.5 628 410.5V457" stroke="#0FBA7F" stroke-width="3"/>
<path d="M504.932 515.614V514.455L510.045 506.364H510.886V508.159H510.318L506.455 514.273V514.364H513.341V515.614H504.932ZM510.409 518V515.261V514.722V506.364H511.75V518H510.409ZM519.107 518.159C518.44 518.159 517.839 518.027 517.305 517.761C516.771 517.496 516.343 517.133 516.021 516.67C515.699 516.208 515.523 515.682 515.493 515.091H516.857C516.91 515.617 517.148 516.053 517.572 516.398C518 516.739 518.512 516.909 519.107 516.909C519.584 516.909 520.008 516.797 520.379 516.574C520.754 516.35 521.048 516.044 521.26 515.653C521.476 515.259 521.584 514.814 521.584 514.318C521.584 513.811 521.472 513.358 521.249 512.96C521.029 512.559 520.726 512.242 520.339 512.011C519.953 511.78 519.512 511.663 519.016 511.659C518.66 511.655 518.294 511.71 517.919 511.824C517.544 511.934 517.235 512.076 516.993 512.25L515.675 512.091L516.379 506.364H522.425V507.614H517.561L517.152 511.045H517.22C517.459 510.856 517.758 510.699 518.118 510.574C518.478 510.449 518.853 510.386 519.243 510.386C519.955 510.386 520.589 510.557 521.146 510.898C521.707 511.235 522.146 511.697 522.464 512.284C522.786 512.871 522.947 513.542 522.947 514.295C522.947 515.038 522.781 515.701 522.447 516.284C522.118 516.864 521.663 517.322 521.084 517.659C520.504 517.992 519.845 518.159 519.107 518.159ZM527.636 511.5C527.155 511.5 526.716 511.383 526.318 511.148C525.924 510.913 525.61 510.598 525.375 510.205C525.14 509.807 525.023 509.367 525.023 508.886C525.023 508.405 525.14 507.968 525.375 507.574C525.61 507.176 525.924 506.86 526.318 506.625C526.716 506.39 527.155 506.273 527.636 506.273C528.117 506.273 528.555 506.39 528.949 506.625C529.347 506.86 529.663 507.176 529.898 507.574C530.133 507.968 530.25 508.405 530.25 508.886C530.25 509.367 530.133 509.807 529.898 510.205C529.663 510.598 529.347 510.913 528.949 511.148C528.555 511.383 528.117 511.5 527.636 511.5ZM527.636 510.364C527.909 510.364 528.157 510.297 528.381 510.165C528.604 510.032 528.782 509.854 528.915 509.631C529.047 509.407 529.114 509.159 529.114 508.886C529.114 508.614 529.047 508.366 528.915 508.142C528.782 507.919 528.604 507.741 528.381 507.608C528.157 507.475 527.909 507.409 527.636 507.409C527.364 507.409 527.116 507.475 526.892 507.608C526.669 507.741 526.491 507.919 526.358 508.142C526.225 508.366 526.159 508.614 526.159 508.886C526.159 509.159 526.225 509.407 526.358 509.631C526.491 509.854 526.669 510.032 526.892 510.165C527.116 510.297 527.364 510.364 527.636 510.364Z" fill="#0FBA7F"/>
<path d="M509.932 366.614V365.455L515.045 357.364H515.886V359.159H515.318L511.455 365.273V365.364H518.341V366.614H509.932ZM515.409 369V366.261V365.722V357.364H516.75V369H515.409ZM524.107 369.159C523.44 369.159 522.839 369.027 522.305 368.761C521.771 368.496 521.343 368.133 521.021 367.67C520.699 367.208 520.523 366.682 520.493 366.091H521.857C521.91 366.617 522.148 367.053 522.572 367.398C523 367.739 523.512 367.909 524.107 367.909C524.584 367.909 525.008 367.797 525.379 367.574C525.754 367.35 526.048 367.044 526.26 366.653C526.476 366.259 526.584 365.814 526.584 365.318C526.584 364.811 526.472 364.358 526.249 363.96C526.029 363.559 525.726 363.242 525.339 363.011C524.953 362.78 524.512 362.663 524.016 362.659C523.66 362.655 523.294 362.71 522.919 362.824C522.544 362.934 522.235 363.076 521.993 363.25L520.675 363.091L521.379 357.364H527.425V358.614H522.561L522.152 362.045H522.22C522.459 361.856 522.758 361.699 523.118 361.574C523.478 361.449 523.853 361.386 524.243 361.386C524.955 361.386 525.589 361.557 526.146 361.898C526.707 362.235 527.146 362.697 527.464 363.284C527.786 363.871 527.947 364.542 527.947 365.295C527.947 366.038 527.781 366.701 527.447 367.284C527.118 367.864 526.663 368.322 526.084 368.659C525.504 368.992 524.845 369.159 524.107 369.159ZM532.636 362.5C532.155 362.5 531.716 362.383 531.318 362.148C530.924 361.913 530.61 361.598 530.375 361.205C530.14 360.807 530.023 360.367 530.023 359.886C530.023 359.405 530.14 358.968 530.375 358.574C530.61 358.176 530.924 357.86 531.318 357.625C531.716 357.39 532.155 357.273 532.636 357.273C533.117 357.273 533.555 357.39 533.949 357.625C534.347 357.86 534.663 358.176 534.898 358.574C535.133 358.968 535.25 359.405 535.25 359.886C535.25 360.367 535.133 360.807 534.898 361.205C534.663 361.598 534.347 361.913 533.949 362.148C533.555 362.383 533.117 362.5 532.636 362.5ZM532.636 361.364C532.909 361.364 533.157 361.297 533.381 361.165C533.604 361.032 533.782 360.854 533.915 360.631C534.047 360.407 534.114 360.159 534.114 359.886C534.114 359.614 534.047 359.366 533.915 359.142C533.782 358.919 533.604 358.741 533.381 358.608C533.157 358.475 532.909 358.409 532.636 358.409C532.364 358.409 532.116 358.475 531.892 358.608C531.669 358.741 531.491 358.919 531.358 359.142C531.225 359.366 531.159 359.614 531.159 359.886C531.159 360.159 531.225 360.407 531.358 360.631C531.491 360.854 531.669 361.032 531.892 361.165C532.116 361.297 532.364 361.364 532.636 361.364Z" fill="#0FBA7F"/>
<path d="M596.909 453.205C597.386 453.208 597.864 453.299 598.341 453.477C598.818 453.655 599.254 453.951 599.648 454.364C600.042 454.773 600.358 455.331 600.597 456.04C600.835 456.748 600.955 457.636 600.955 458.705C600.955 459.739 600.856 460.657 600.659 461.46C600.466 462.259 600.186 462.934 599.818 463.483C599.455 464.032 599.011 464.449 598.489 464.733C597.97 465.017 597.383 465.159 596.727 465.159C596.076 465.159 595.494 465.03 594.983 464.773C594.475 464.511 594.059 464.15 593.733 463.688C593.411 463.222 593.205 462.682 593.114 462.068H594.5C594.625 462.602 594.873 463.044 595.244 463.392C595.619 463.737 596.114 463.909 596.727 463.909C597.625 463.909 598.333 463.517 598.852 462.733C599.375 461.949 599.636 460.841 599.636 459.409H599.545C599.333 459.727 599.081 460.002 598.79 460.233C598.498 460.464 598.174 460.642 597.818 460.767C597.462 460.892 597.083 460.955 596.682 460.955C596.015 460.955 595.403 460.79 594.847 460.46C594.294 460.127 593.85 459.67 593.517 459.091C593.188 458.508 593.023 457.841 593.023 457.091C593.023 456.379 593.182 455.727 593.5 455.136C593.822 454.542 594.273 454.068 594.852 453.716C595.436 453.364 596.121 453.193 596.909 453.205ZM596.909 454.455C596.432 454.455 596.002 454.574 595.619 454.812C595.241 455.047 594.939 455.366 594.716 455.767C594.496 456.165 594.386 456.606 594.386 457.091C594.386 457.576 594.492 458.017 594.705 458.415C594.92 458.809 595.214 459.123 595.585 459.358C595.96 459.589 596.386 459.705 596.864 459.705C597.223 459.705 597.559 459.634 597.869 459.494C598.18 459.35 598.451 459.155 598.682 458.909C598.917 458.659 599.1 458.377 599.233 458.062C599.366 457.744 599.432 457.413 599.432 457.068C599.432 456.614 599.322 456.187 599.102 455.79C598.886 455.392 598.587 455.07 598.205 454.824C597.826 454.578 597.394 454.455 596.909 454.455ZM606.984 465.159C606.128 465.159 605.399 464.926 604.797 464.46C604.195 463.991 603.734 463.311 603.416 462.42C603.098 461.527 602.939 460.447 602.939 459.182C602.939 457.924 603.098 456.85 603.416 455.96C603.738 455.066 604.2 454.384 604.803 453.915C605.409 453.441 606.136 453.205 606.984 453.205C607.833 453.205 608.558 453.441 609.161 453.915C609.767 454.384 610.229 455.066 610.547 455.96C610.869 456.85 611.03 457.924 611.03 459.182C611.03 460.447 610.871 461.527 610.553 462.42C610.234 463.311 609.774 463.991 609.172 464.46C608.57 464.926 607.84 465.159 606.984 465.159ZM606.984 463.909C607.833 463.909 608.492 463.5 608.962 462.682C609.431 461.864 609.666 460.697 609.666 459.182C609.666 458.174 609.558 457.316 609.342 456.608C609.13 455.9 608.823 455.36 608.422 454.989C608.024 454.617 607.545 454.432 606.984 454.432C606.143 454.432 605.486 454.847 605.013 455.676C604.539 456.502 604.303 457.67 604.303 459.182C604.303 460.189 604.409 461.045 604.621 461.75C604.833 462.455 605.138 462.991 605.536 463.358C605.937 463.725 606.42 463.909 606.984 463.909ZM615.621 458.5C615.14 458.5 614.7 458.383 614.303 458.148C613.909 457.913 613.594 457.598 613.359 457.205C613.125 456.807 613.007 456.367 613.007 455.886C613.007 455.405 613.125 454.968 613.359 454.574C613.594 454.176 613.909 453.86 614.303 453.625C614.7 453.39 615.14 453.273 615.621 453.273C616.102 453.273 616.539 453.39 616.933 453.625C617.331 453.86 617.647 454.176 617.882 454.574C618.117 454.968 618.234 455.405 618.234 455.886C618.234 456.367 618.117 456.807 617.882 457.205C617.647 457.598 617.331 457.913 616.933 458.148C616.539 458.383 616.102 458.5 615.621 458.5ZM615.621 457.364C615.893 457.364 616.142 457.297 616.365 457.165C616.589 457.032 616.767 456.854 616.899 456.631C617.032 456.407 617.098 456.159 617.098 455.886C617.098 455.614 617.032 455.366 616.899 455.142C616.767 454.919 616.589 454.741 616.365 454.608C616.142 454.475 615.893 454.409 615.621 454.409C615.348 454.409 615.1 454.475 614.876 454.608C614.653 454.741 614.475 454.919 614.342 455.142C614.21 455.366 614.143 455.614 614.143 455.886C614.143 456.159 614.21 456.407 614.342 456.631C614.475 456.854 614.653 457.032 614.876 457.165C615.1 457.297 615.348 457.364 615.621 457.364Z" fill="#0FBA7F"/>
</g>
<rect x="407.5" y="315.5" width="243" height="243" stroke="#0FBA7F" stroke-width="3"/>
<path d="M665 557L695 557L695 317L665 317" stroke="#0FBA7F" stroke-width="3"/>
<path d="M409 573L409 603L649 603L649 573" stroke="#0FBA7F" stroke-width="3"/>
<path d="M695 437L755 437" stroke="#0FBA7F" stroke-width="3"/>
<path d="M529 603V663" stroke="#0FBA7F" stroke-width="3"/>
<rect x="1252" width="1022" height="1022" fill="#F7F7F7"/>
<path d="M1579.81 366V364.466L1585.57 358.159C1586.24 357.42 1586.8 356.778 1587.24 356.233C1587.68 355.682 1588 355.165 1588.21 354.682C1588.43 354.193 1588.53 353.682 1588.53 353.148C1588.53 352.534 1588.39 352.003 1588.09 351.554C1587.8 351.105 1587.4 350.759 1586.9 350.514C1586.39 350.27 1585.82 350.148 1585.19 350.148C1584.52 350.148 1583.94 350.287 1583.44 350.565C1582.94 350.838 1582.56 351.222 1582.29 351.716C1582.02 352.21 1581.89 352.79 1581.89 353.455H1579.88C1579.88 352.432 1580.11 351.534 1580.58 350.761C1581.05 349.989 1581.7 349.386 1582.51 348.955C1583.33 348.523 1584.24 348.307 1585.26 348.307C1586.28 348.307 1587.19 348.523 1587.98 348.955C1588.77 349.386 1589.39 349.969 1589.84 350.702C1590.29 351.435 1590.51 352.25 1590.51 353.148C1590.51 353.79 1590.39 354.418 1590.16 355.031C1589.93 355.639 1589.54 356.318 1588.97 357.068C1588.41 357.812 1587.62 358.722 1586.62 359.795L1582.7 363.989V364.125H1590.82V366H1579.81Z" fill="#0FBA7F"/>
<path d="M1933.81 526V524.466L1939.57 518.159C1940.24 517.42 1940.8 516.778 1941.24 516.233C1941.68 515.682 1942 515.165 1942.21 514.682C1942.43 514.193 1942.53 513.682 1942.53 513.148C1942.53 512.534 1942.39 512.003 1942.09 511.554C1941.8 511.105 1941.4 510.759 1940.9 510.514C1940.39 510.27 1939.82 510.148 1939.19 510.148C1938.52 510.148 1937.94 510.287 1937.44 510.565C1936.94 510.838 1936.56 511.222 1936.29 511.716C1936.02 512.21 1935.89 512.79 1935.89 513.455H1933.88C1933.88 512.432 1934.11 511.534 1934.58 510.761C1935.05 509.989 1935.7 509.386 1936.51 508.955C1937.33 508.523 1938.24 508.307 1939.26 508.307C1940.28 508.307 1941.19 508.523 1941.98 508.955C1942.77 509.386 1943.39 509.969 1943.84 510.702C1944.29 511.435 1944.51 512.25 1944.51 513.148C1944.51 513.79 1944.39 514.418 1944.16 515.031C1943.93 515.639 1943.54 516.318 1942.97 517.068C1942.41 517.812 1941.62 518.722 1940.62 519.795L1936.7 523.989V524.125H1944.82V526H1933.81Z" fill="#0FBA7F"/>
<g clip-path="url(#clip1_1015_199412)">
<mask id="mask0_1015_199412" style="mask-type:alpha" maskUnits="userSpaceOnUse" x="1642" y="317" width="240" height="240">
<rect x="1642" y="317" width="240" height="240" fill="#D9D9D9"/>
</mask>
<g mask="url(#mask0_1015_199412)">
<path d="M1673.5 427C1672.67 427 1672 426.329 1672 425.5V348.5C1672 347.672 1672.67 347 1673.5 347H1750.5C1751.33 347 1752 347.672 1752 348.5V425.5C1752 426.329 1751.33 427 1750.5 427H1673.5ZM1692 407H1732V367H1692V407Z" fill="#121212"/>
<path d="M1673.5 527C1672.67 527 1672 526.329 1672 525.5V448.5C1672 447.672 1672.67 447 1673.5 447H1750.5C1751.33 447 1752 447.672 1752 448.5V525.5C1752 526.329 1751.33 527 1750.5 527H1673.5ZM1692 507H1732V467H1692V507Z" fill="#121212"/>
<path d="M1773.5 427C1772.67 427 1772 426.329 1772 425.5V348.5C1772 347.672 1772.67 347 1773.5 347H1850.5C1851.33 347 1852 347.672 1852 348.5V425.5C1852 426.329 1851.33 427 1850.5 427H1773.5ZM1792 407H1832V367H1792V407Z" fill="#121212"/>
<path d="M1773.5 527C1772.67 527 1772 526.329 1772 525.5V448.5C1772 447.672 1772.67 447 1773.5 447H1850.5C1851.33 447 1852 447.672 1852 448.5V525.5C1852 526.329 1851.33 527 1850.5 527H1773.5ZM1792 507H1832V467H1792V507Z" fill="#121212"/>
</g>
<rect x="1692" y="347" width="20" height="20" transform="rotate(90 1692 347)" fill="#0FBA7F" fill-opacity="0.3"/>
<rect x="1692" y="507" width="20" height="20" transform="rotate(90 1692 507)" fill="#0FBA7F" fill-opacity="0.3"/>
<rect x="1852" y="347" width="20" height="20" transform="rotate(90 1852 347)" fill="#0FBA7F" fill-opacity="0.3"/>
<rect x="1852" y="507" width="20" height="20" transform="rotate(90 1852 507)" fill="#0FBA7F" fill-opacity="0.3"/>
</g>
<rect x="1640.5" y="315.5" width="243" height="243" stroke="#0FBA7F" stroke-width="3"/>
<path d="M1600 349L1672 349" stroke="#0FBA7F" stroke-width="3"/>
<path d="M1924 525L1852 525" stroke="#0FBA7F" stroke-width="3"/>
<path d="M1600 365L1672 365" stroke="#0FBA7F" stroke-width="3"/>
<path d="M1924 509L1852 509" stroke="#0FBA7F" stroke-width="3"/>
<path d="M1610 348L1610 366" stroke="#0FBA7F" stroke-width="3"/>
<path d="M1914 526L1914 508" stroke="#0FBA7F" stroke-width="3"/>
<defs>
<clipPath id="clip0_1015_199412">
<rect x="409" y="317" width="240" height="240" fill="white"/>
</clipPath>
<clipPath id="clip1_1015_199412">
<rect x="1642" y="317" width="240" height="240" fill="white"/>
</clipPath>
</defs>
</svg>
