<svg width="2274" height="1022" viewBox="0 0 2274 1022" fill="none" xmlns="http://www.w3.org/2000/svg">
<rect width="2274" height="1022" fill="#F7F7F7"/>
<path d="M799.879 497.749C803.096 497.749 805.71 496.744 807.72 494.733C809.731 492.723 810.736 490.109 810.736 486.893C810.736 483.837 809.731 481.223 807.72 479.052C805.71 476.881 803.096 475.795 799.879 475.795C796.663 475.795 794.049 476.881 792.039 479.052C790.028 481.223 789.023 483.837 789.023 486.893C789.023 490.109 790.028 492.723 792.039 494.733C794.049 496.744 796.663 497.749 799.879 497.749ZM790.953 457.701H810.253V394.251H790.953V457.701ZM799.879 546C786.047 546 773.1 543.386 761.037 538.159C748.975 532.932 738.4 525.775 729.312 516.688C720.225 507.6 713.068 497.025 707.841 484.963C702.614 472.9 700 459.953 700 446.121C700 432.128 702.614 419.1 707.841 407.037C713.068 394.975 720.185 384.44 729.192 375.433C738.199 366.426 748.774 359.269 760.917 353.961C773.06 348.654 786.047 346 799.879 346C813.872 346 826.94 348.654 839.083 353.961C851.226 359.269 861.761 366.386 870.688 375.312C879.614 384.239 886.731 394.774 892.039 406.917C897.346 419.06 900 432.128 900 446.121C900 459.953 897.346 472.94 892.039 485.083C886.731 497.226 879.574 507.801 870.567 516.808C861.56 525.815 851.025 532.932 838.963 538.159C826.9 543.386 813.872 546 799.879 546ZM800.121 526.941C822.477 526.941 841.496 519.06 857.177 503.298C872.859 487.536 880.7 468.396 880.7 445.879C880.7 423.523 872.859 404.504 857.177 388.823C841.496 373.141 822.396 365.3 799.879 365.3C777.523 365.3 758.464 373.141 742.702 388.823C726.94 404.504 719.059 423.604 719.059 446.121C719.059 468.477 726.94 487.536 742.702 503.298C758.464 519.06 777.604 526.941 800.121 526.941Z" fill="#121212"/>
<g clip-path="url(#clip0_1014_199395)">
<path d="M1541.01 345.989C1485.81 345.989 1441.01 390.789 1441.01 445.989C1441.01 501.189 1485.81 545.989 1541.01 545.989C1596.21 545.989 1641.01 501.189 1641.01 445.989C1641.01 390.789 1596.21 345.989 1541.01 345.989ZM1551.01 495.989H1531.01V435.989H1551.01V495.989ZM1551.01 415.989H1531.01V395.989H1551.01V415.989Z" fill="#121212"/>
</g>
<path d="M774.466 702V681.636H776.932V699.812H786.398V702H774.466ZM789.898 702V686.727H792.244V702H789.898ZM791.091 684.182C790.634 684.182 790.239 684.026 789.908 683.714C789.583 683.403 789.42 683.028 789.42 682.591C789.42 682.153 789.583 681.779 789.908 681.467C790.239 681.156 790.634 681 791.091 681C791.548 681 791.939 681.156 792.264 681.467C792.596 681.779 792.761 682.153 792.761 682.591C792.761 683.028 792.596 683.403 792.264 683.714C791.939 684.026 791.548 684.182 791.091 684.182ZM798.889 692.812V702H796.542V686.727H798.809V689.114H799.008C799.366 688.338 799.91 687.715 800.639 687.244C801.368 686.767 802.309 686.528 803.463 686.528C804.497 686.528 805.402 686.741 806.177 687.165C806.953 687.582 807.556 688.219 807.987 689.074C808.418 689.922 808.633 690.996 808.633 692.295V702H806.287V692.455C806.287 691.255 805.975 690.32 805.352 689.651C804.729 688.974 803.874 688.636 802.787 688.636C802.038 688.636 801.368 688.799 800.778 689.124C800.195 689.448 799.734 689.922 799.396 690.545C799.058 691.169 798.889 691.924 798.889 692.812ZM819.325 702.318C817.853 702.318 816.584 701.993 815.516 701.344C814.456 700.688 813.637 699.773 813.06 698.599C812.49 697.42 812.205 696.047 812.205 694.483C812.205 692.919 812.49 691.54 813.06 690.347C813.637 689.147 814.439 688.212 815.467 687.543C816.501 686.866 817.707 686.528 819.086 686.528C819.881 686.528 820.667 686.661 821.442 686.926C822.218 687.191 822.924 687.622 823.56 688.219C824.197 688.809 824.704 689.591 825.082 690.565C825.46 691.54 825.648 692.74 825.648 694.165V695.159H813.876V693.131H823.262C823.262 692.269 823.09 691.5 822.745 690.824C822.407 690.148 821.923 689.614 821.293 689.223C820.67 688.832 819.934 688.636 819.086 688.636C818.151 688.636 817.343 688.868 816.66 689.332C815.984 689.79 815.463 690.386 815.099 691.122C814.734 691.858 814.552 692.647 814.552 693.489V694.841C814.552 695.994 814.751 696.972 815.148 697.774C815.553 698.57 816.113 699.176 816.829 699.594C817.545 700.005 818.377 700.21 819.325 700.21C819.941 700.21 820.498 700.124 820.995 699.952C821.499 699.773 821.933 699.508 822.298 699.156C822.662 698.798 822.944 698.354 823.143 697.824L825.41 698.46C825.171 699.229 824.77 699.905 824.207 700.489C823.643 701.065 822.947 701.516 822.119 701.841C821.29 702.159 820.359 702.318 819.325 702.318Z" fill="#0FBA7F"/>
<path d="M1525.47 702V681.636H1537.68V683.824H1527.93V690.705H1536.76V692.892H1527.93V702H1525.47ZM1541.58 702V686.727H1543.93V702H1541.58ZM1542.77 684.182C1542.32 684.182 1541.92 684.026 1541.59 683.714C1541.27 683.403 1541.1 683.028 1541.1 682.591C1541.1 682.153 1541.27 681.779 1541.59 681.467C1541.92 681.156 1542.32 681 1542.77 681C1543.23 681 1543.62 681.156 1543.95 681.467C1544.28 681.779 1544.44 682.153 1544.44 682.591C1544.44 683.028 1544.28 683.403 1543.95 683.714C1543.62 684.026 1543.23 684.182 1542.77 684.182ZM1550.57 681.636V702H1548.23V681.636H1550.57ZM1557.22 681.636V702H1554.87V681.636H1557.22Z" fill="#0FBA7F"/>
<defs>
<clipPath id="clip0_1014_199395">
<rect width="240" height="240" fill="white" transform="translate(1421 326)"/>
</clipPath>
</defs>
</svg>
